<svg xmlns="http://www.w3.org/2000/svg" width="990.796" height="769.896" viewBox="0 0 990.796 769.896">
    <defs>
        <style>
            .prefix__cls-1{fill:#e8e8e8}.prefix__cls-2{fill:#ec615b}.prefix__cls-3{fill:#3f578d}.prefix__cls-6{stroke:#161616;stroke-miterlimit:10;stroke-width:2px}.prefix__cls-5{fill:#191919}.prefix__cls-6,.prefix__cls-9{fill:#fff}.prefix__cls-12,.prefix__cls-14,.prefix__cls-15,.prefix__cls-17,.prefix__cls-21,.prefix__cls-7{fill:#6d6c6c}.prefix__cls-7{opacity:.14}.prefix__cls-11{fill:#161616}.prefix__cls-12{opacity:.12}.prefix__cls-14{opacity:.16}.prefix__cls-15{opacity:.18}.prefix__cls-17{opacity:.22}.prefix__cls-21{opacity:.13}
        </style>
    </defs>
    <g id="prefix__teaching" transform="translate(-.875)">
        <path id="prefix__Path" d="M2.355 4.831h183.033c3.14 0 3.14-4.831 0-4.831H2.355c-3.14 0-3.14 4.831 0 4.831z" class="prefix__cls-1" transform="translate(111.919 746.142)"/>
        <path id="prefix__Path-2" d="M2.295 4.831h235.776c3.14 0 3.14-4.831 0-4.831H2.295c-3.06 0-3.06 4.831 0 4.831z" class="prefix__cls-1" data-name="Path" transform="translate(171.648 727.218)"/>
        <path id="prefix__Path-3" d="M2.355 4.831h124.33c3.14 0 3.14-4.831 0-4.831H2.355c-3.14 0-3.14 4.831 0 4.831z" class="prefix__cls-1" data-name="Path" transform="translate(403.418 697.424)"/>
        <path id="prefix__Path-4" d="M2.355 4.831h331.279c3.14 0 3.14-4.831 0-4.831H2.355c-3.14 0-3.14 4.831 0 4.831z" class="prefix__cls-1" data-name="Path" transform="translate(509.871 765.065)"/>
        <path id="prefix__Path-5" d="M2.355 4.831H173.47c3.14 0 3.14-4.831 0-4.831H2.355c-3.14 0-3.14 4.831 0 4.831z" class="prefix__cls-1" data-name="Path" transform="translate(713.841 746.142)"/>
        <path id="prefix__Path-6" d="M41.362 0a50.183 50.183 0 0 0-17.716 6.684A49.371 49.371 0 0 0 4.884 27.62C2.871 31.807-1.638 41.551.616 53.629c3.3 17.876 19 26.815 21.5 28.184 7.972-12.159 15.863-24.4 23.835-36.558Q43.536 22.668 41.362 0z" class="prefix__cls-2" data-name="Path" transform="translate(223.977 164.754)"/>
        <path id="prefix__Path-7" d="M0 19.165C11.757 12.8 23.433 6.442 35.189 0c2.577 3.221 7.408 10.388 7.328 20.051a28.347 28.347 0 0 1-.644 6.039Q20.856 22.587 0 19.165z" class="prefix__cls-3" data-name="Path" transform="translate(271.297 189.394)"/>
        <path id="prefix__Path-8" d="M0 1.852C1.449 20.775 2.818 39.779 4.268 58.7c5.154-.322 10.307-.725 15.38-1.047C17.957 38.41 16.266 19.245 14.575 0 9.663.644 4.831 1.208 0 1.852z" class="prefix__cls-3" data-name="Path" transform="translate(145.195 262.269)"/>
        <path id="prefix__Path-9" d="M0 1.369c.805 11.676 1.61 23.272 2.5 34.948 5.154-.483 10.307-.886 15.38-1.369C16.749 23.272 15.7 11.676 14.575 0 9.663.4 4.831.886 0 1.369z" class="prefix__cls-2" data-name="Path" transform="translate(173.943 282.481)"/>
        <path id="prefix__Path-10" fill="none" stroke="#161616" stroke-miterlimit="10" stroke-width="2px" d="M261.625 337.4Q141.8 348.39 22.064 359.3 11.072 183.918 0 8.455L239 0q11.354 168.739 22.627 337.4z" data-name="Path" transform="translate(95.512 18.601)"/>
        <g id="prefix__Group" transform="translate(110.55)">
            <path id="prefix__Path-11" d="M.018 1.519C.9 7.88 1.87 14.242 2.755 20.6c.242 1.53 2.577.886 2.335-.644C4.2 13.6 3.238 7.236 2.353.875 2.111-.655-.224-.011.018 1.519z" class="prefix__cls-1" data-name="Path" transform="translate(67.321 3.393)"/>
            <path id="prefix__Path-12" d="M1.147 4.751c18.119-1.208 36.317-1.933 54.435-2.335a1.209 1.209 0 0 0 0-2.416Q28.284.6 1.147 2.335c-1.53.081-1.53 2.5 0 2.416z" class="prefix__cls-1" data-name="Path" transform="translate(67.882)"/>
            <path id="prefix__Path-13" d="M.017 1.147C.822 7.992 1.466 14.756 1.869 21.6c.081 1.53 2.5 1.53 2.416 0-.4-6.845-1.047-13.689-1.852-20.453-.242-1.529-2.658-1.529-2.416 0z" class="prefix__cls-1" data-name="Path" transform="translate(122.723 .302)"/>
            <path id="prefix__Path-14" d="M.008 1.147C.571 7.106 1.135 13.146 1.7 19.1a1.238 1.238 0 0 0 1.208 1.208c17.313.161 34.545-2.577 51.938-2.013 1.53.081 1.53-2.335 0-2.416C37.532 15.32 20.3 17.977 2.907 17.9l1.207 1.2c-.564-5.959-1.127-12-1.691-17.957C2.262-.382-.153-.382.008 1.147z" class="prefix__cls-1" data-name="Path" transform="translate(69.103 3.523)"/>
            <path id="prefix__Path-15" d="M.551 4.026c2.657 1.61 6.12.805 9.019.644l14.494-.725c9.663-.483 19.245-1.047 28.908-1.53l-1.207-1.207c.242 5.234.483 10.468.725 15.783.081 1.53 2.5 1.53 2.416 0-.242-5.234-.483-10.468-.725-15.783A1.238 1.238 0 0 0 52.972 0c-8.535.483-17.151.886-25.687 1.369-4.268.242-8.536.483-12.884.644-3.382.161-9.663 1.772-12.642-.081C.47 1.127-.738 3.221.551 4.026z" class="prefix__cls-1" data-name="Path" transform="translate(69.848 1.449)"/>
            <path id="prefix__Path-16" d="M.031 2.86a103.807 103.807 0 0 1 2.5 14.978c.805-.081 1.61-.242 2.335-.322A33.887 33.887 0 0 1 5.024 4.47c-.805-.081-1.61-.242-2.335-.322C2.85 8.98 3.172 13.569 5.024 18c.564 1.288 2.577.322 2.174-.966C5.829 11.878 4.541 6.805 5.91 1.491H3.574l2.175 14.494c.242 1.53 2.577.886 2.335-.644L5.91.847C5.749-.361 3.816-.2 3.574.847 2.125 6.564 3.413 12.12 4.863 17.676l2.174-.966C5.346 12.684 5.185 8.335 5.024 4.068c0-1.288-2.094-1.691-2.335-.322a35.8 35.8 0 0 0-.161 14.333c.242 1.288 2.5 1.047 2.335-.322A114.89 114.89 0 0 0 2.286 2.135C1.964.686-.291 1.33.031 2.86z" class="prefix__cls-1" data-name="Path" transform="translate(70.287 3.099)"/>
            <path id="prefix__Path-17" d="M2.592 6.4L5.25 2.048c-.725-.4-1.369-.805-2.094-1.208C2.109 3.175 1.143 5.511.1 7.846-.387 8.973 1.062 10.5 2.029 9.3c1.61-2.013 3.14-4.107 4.751-6.12-.644-.4-1.369-.805-2.013-1.208A24.232 24.232 0 0 1 2.19 7.443c-.725 1.128 1.046 2.577 1.932 1.45 1.208-1.53 2.416-3.06 3.7-4.59l-1.928-1.45c-1.61 3.785-3.221 7.489-4.831 11.273-.483 1.127.966 2.657 1.933 1.449 2.9-3.624 5.878-7.328 8.777-10.951L9.839 3.175c-2.174 3.543-4.348 7.167-6.522 10.71a1.207 1.207 0 0 0 1.369 1.772A5.141 5.141 0 0 0 7.1 14.288c-.644-.4-1.369-.805-2.013-1.208a6.73 6.73 0 0 1-2.5 3.3c-1.208.886-.161 2.9 1.208 2.094a10.043 10.043 0 0 1 3.946-1.369L6.3 15.657c-2.1-1.047-2.741-2.497-1.936-4.429a11.425 11.425 0 0 1 1.127-2.9C6.135 7.2 7.343 4.464 8.551 6.88c.886 1.772-2.818 11.676-3.3 5.556a12.849 12.849 0 0 1 .564-4.67 16.133 16.133 0 0 1 1.367-3.222c.805-1.61 1.208-1.61 1.288 0 1.53 3.221-.322 8.294-1.852 11.113a20.23 20.23 0 0 1 2.174.322A13.49 13.49 0 0 1 8.39 9.3c.161-.886.966-5.154 1.852-3.785 1.852 2.657-1.208 8.7-2.5 11.032.725.242 1.53.4 2.255.644a21.6 21.6 0 0 1 .081-6.442c.242-1.449 1.127-6.12 2.657-6.281 2.174-.242-2.013 9.663-2.979 11.112a20.23 20.23 0 0 1 2.174.322c-.725-3.624-.725-11.354 4.187-12.562-.483-.242-.966-.564-1.449-.805a15.153 15.153 0 0 1-3.865 13.287 18.8 18.8 0 0 1 2.013.564 13.422 13.422 0 0 1-.078-6.686c.322-1.208 2.013-6.281 3.624-5.878 1.127.242-.322 4.912-.644 5.959a16.68 16.68 0 0 1-4.268 6.764 18.8 18.8 0 0 1 2.013.564A12.451 12.451 0 0 1 19.18 3.417c-.564-.242-1.208-.483-1.772-.725 1.852 4.912-2.9 11.273-6.039 14.575a18.8 18.8 0 0 1 2.013.564 12.659 12.659 0 0 1 .161-6.925c.242-.725 2.657-6.2 3.785-5.8 1.61.564-1.127 5.476-1.61 6.2-.564 1.047-1.61 2.9-2.657 3.543-1.208.805-1.127.966-1.208-.805-.081-2.416 1.53-5.154 2.9-6.925.725-.966 1.933-2.5 3.06-2.9 1.288-.564 1.127-.725.966.966-.564 4.993-3.382 9.5-6.925 12.964a18.8 18.8 0 0 1 2.013.564 14.726 14.726 0 0 1 4.428-12.961c1.047-.966 2.255-1.61 2.657.4.161.805-.805 2.738-1.127 3.463a21.678 21.678 0 0 1-4.751 6.925h1.691c-1.449-1.691.4-5.4 1.288-7.006.4-.725 3.865-6.039 4.831-5.556 1.127.564-1.369 5.959-1.691 6.522a25.523 25.523 0 0 1-4.268 5.878c.725.322 1.369.564 2.094.886A16.307 16.307 0 0 1 26.83 3.256c-.644-.322-1.208-.725-1.852-1.047a18.535 18.535 0 0 1-5.717 13.931c.725.322 1.369.564 2.094.886a21.191 21.191 0 0 1 7.73-14.736l-1.933-.242c2.577 3.865-3.06 11.112-5.315 14.011.725.322 1.369.564 2.094.886A17.761 17.761 0 0 1 25.3 10.5c.483-1.288 2.5-5.717 3.946-6.039 1.933-.4-.081 3.3-.725 4.67a24.191 24.191 0 0 1-4.429 6.2c.644.4 1.369.805 2.013 1.208.725-4.993 2.738-11.6 7.972-13.448a18.577 18.577 0 0 0-1.53-1.127 21.849 21.849 0 0 1-7.086 13.85c.725.322 1.369.564 2.094.886a22.373 22.373 0 0 1 1.933-7.489c.725-1.53 2.657-5.556 4.429-5.878.886-.161 0 1.208-.322 2.094a25.209 25.209 0 0 1-1.772 3.624 29.037 29.037 0 0 1-4.751 6.12c.725.322 1.369.564 2.094.886a17.207 17.207 0 0 1 6.763-12.721c-.564-.483-1.208-.886-1.772-1.369-.643 3.785-2.576 6.765-5.157 9.583-1.53 1.691-2.013 1.288-2.174-.966a6.717 6.717 0 0 1 4.751-6.925 18.576 18.576 0 0 0-1.53-1.127 26.46 26.46 0 0 1-4.268 13.206c.725.242 1.53.4 2.255.644a19.057 19.057 0 0 1 2.013-6.925c.725-1.449 2.577-5.073 4.187-5.476 2.335-.644 0 3.946-.564 5.073a24.82 24.82 0 0 1-4.429 6.039c.725.322 1.369.564 2.094.886a12.546 12.546 0 0 1 8.777-12.8 18.577 18.577 0 0 0-1.53-1.127A21.346 21.346 0 0 1 30.776 16.3c.725.322 1.369.564 2.094.886a18.879 18.879 0 0 1 8.052-13.527c-.564-.242-1.208-.483-1.772-.725 1.288 4.187-3.14 9.663-5.556 12.642.725.322 1.369.564 2.094.886.322-4.107 2.657-11.6 7.569-12.32l-1.449-1.45a27.1 27.1 0 0 1-5.717 12.32c.725.322 1.369.564 2.094.886A19.03 19.03 0 0 1 43.74 3.256l-1.933-.242c1.852 3.382-1.933 9.341-3.624 12.32l2.174.966c.805-3.865 1.449-10.388 5.073-12.723a8.873 8.873 0 0 0-1.449-.161C46 5.672 42.13 13.241 41.244 15.5c.805.242 1.53.4 2.335.644 1.127-4.107 2.174-8.133 3.3-12.24-.805-.081-1.61-.242-2.335-.322a29.584 29.584 0 0 1-1.691 11.193c.805.081 1.61.242 2.335.322.4-3.624 0-9.26 2.094-12.32a20.23 20.23 0 0 1-2.174-.322c1.127 3.946.725 7.73.161 11.837.805.081 1.61.242 2.335.322-.322-4.509-.644-9.1-.966-13.609-.725.322-1.369.564-2.094.886 3.06 3.14 1.852 7.247.483 10.871a20.23 20.23 0 0 0 2.174-.322c-.886-1.691-2.657-4.509-2.577-6.522-.805-1.288-.483-1.933 1.047-1.852a5.491 5.491 0 0 1 .644 4.026c.725-.322 1.369-.564 2.094-.886a10.411 10.411 0 0 1-2.333-4.836c-.564.483-1.208.886-1.772 1.369.322.886.644 1.852.966 2.738a20.23 20.23 0 0 1 2.174.322 11.985 11.985 0 0 1-.725-4.751 18.576 18.576 0 0 1-1.53 1.127c3.14 1.288.966 9.663.564 11.837a13.767 13.767 0 0 0 1.127-.886l-18.36.483a1.209 1.209 0 0 0 0 2.416 89.18 89.18 0 0 0 16.024-1.449c-.242-.805-.4-1.53-.644-2.335a102.079 102.079 0 0 1-19 3.3 1.209 1.209 0 0 0 0 2.416c6.281.242 12.4-1.933 18.682-1.691-.081-.805-.242-1.61-.322-2.335a33.857 33.857 0 0 1-14.736 1.53v2.416l17.393-1.691c-.081-.805-.242-1.61-.322-2.335a35.725 35.725 0 0 1-11.679 1.369v2.416a46.053 46.053 0 0 0 11.515-1.449 1.212 1.212 0 0 0-.644-2.335A64.585 64.585 0 0 1 31.178 16.3v2.416c5.476-.725 10.951-1.61 16.427-2.738 1.288-.242 1.047-2.5-.322-2.335a55.789 55.789 0 0 1-15.541-.243c-1.53-.242-2.174 2.094-.644 2.335a60.553 60.553 0 0 0 16.185.322c-.081-.805-.242-1.61-.322-2.335-5.234 1.047-10.468 2.013-15.783 2.657a1.208 1.208 0 0 0 0 2.416 65.465 65.465 0 0 0 14.253-1.53c-.242-.805-.4-1.53-.644-2.335a45.185 45.185 0 0 1-10.871 1.37 1.209 1.209 0 0 0 0 2.416 40.037 40.037 0 0 0 12.32-1.449c1.288-.4 1.047-2.5-.322-2.335l-17.393 1.691a1.209 1.209 0 0 0 0 2.416 36.713 36.713 0 0 0 15.38-1.61 1.193 1.193 0 0 0-.322-2.335c-6.281-.242-12.4 1.933-18.682 1.691V19.2a101.332 101.332 0 0 0 19.648-3.382c1.53-.4.886-2.577-.644-2.335a82.751 82.751 0 0 1-15.38 1.369v2.416l18.36-.483a1.208 1.208 0 0 0 1.127-.886c.805-4.509 3.3-12.481-2.255-14.817-.805-.322-1.449.483-1.53 1.127a11.191 11.191 0 0 0 .805 5.4c.322.886 1.691 1.288 2.174.322a4.375 4.375 0 0 0-1.852-6.039 1.207 1.207 0 0 0-1.772 1.369 13.054 13.054 0 0 0 2.979 5.959c.725.886 2.013.081 2.094-.886.243-2.582-2.012-10.234-6.119-7.896-3.7 2.174 1.208 10.951 2.416 13.448.483 1.047 1.852.564 2.174-.322C48.894 8.973 49.7 4.142 46 .357a1.232 1.232 0 0 0-2.094.886c.322 4.509.644 9.1.966 13.609.081 1.288 2.174 1.772 2.335.322.644-4.429 1.127-8.7-.161-13.126a1.212 1.212 0 0 0-2.174-.322c-2.5 3.543-2.013 9.421-2.416 13.528-.161 1.449 1.933 1.53 2.335.322a31.121 31.121 0 0 0 1.768-11.837 1.189 1.189 0 0 0-2.335-.322c-1.127 4.107-2.174 8.133-3.3 12.24a1.212 1.212 0 0 0 2.335.644c1.449-3.7 5.315-10.79 2.094-14.494a1.109 1.109 0 0 0-1.453-.162c-4.429 2.9-5.234 9.421-6.2 14.172-.242 1.288 1.53 2.174 2.174.966 2.175-3.945 6.041-10.306 3.626-14.815a1.266 1.266 0 0 0-1.933-.242 21.876 21.876 0 0 0-6.281 14.333 1.25 1.25 0 0 0 2.094.886 29.032 29.032 0 0 0 6.36-13.367 1.2 1.2 0 0 0-1.449-1.449c-6.039.886-8.938 9.421-9.341 14.655a1.25 1.25 0 0 0 2.094.886c3.14-3.785 7.811-9.743 6.2-14.978a1.2 1.2 0 0 0-1.772-.725 21.415 21.415 0 0 0-9.26 15.541c-.161 1.127 1.369 1.449 2.094.886a23.9 23.9 0 0 0 8.455-15.943 1.159 1.159 0 0 0-1.53-1.127 14.931 14.931 0 0 0-10.549 15.138 1.259 1.259 0 0 0 2.094.886C32.628 15.5 42.291 2.37 36.252.921c-2.5-.644-5.315 3.221-6.522 4.831a22.47 22.47 0 0 0-4.268 11.193c-.161 1.288 1.691 1.53 2.255.644a27.846 27.846 0 0 0 4.67-14.414 1.184 1.184 0 0 0-1.53-1.127 8.43 8.43 0 0 0-6.12 6.6c-.564 2.094-1.127 6.039 1.127 7.408 2.174 1.369 3.946-1.047 5.154-2.5 2.577-2.979 4.67-6.2 5.315-10.146.161-.886-.805-2.094-1.772-1.369a19.786 19.786 0 0 0-7.972 14.817c-.081 1.047 1.369 1.53 2.094.886C30.615 15.818 40.922 3.095 35.366 1c-2.5-.966-5.154 3.06-6.281 4.67a23.748 23.748 0 0 0-4.107 11.757c-.081 1.127 1.369 1.53 2.094.886a24.147 24.147 0 0 0 7.811-15.54 1.194 1.194 0 0 0-1.53-1.127c-6.12 2.174-8.777 9.18-9.663 15.139-.161 1.127 1.127 2.174 2.013 1.208 1.933-2.013 11.112-14.655 5.476-16.266C28.6 1 25.783 5.43 24.656 7.2a21.088 21.088 0 0 0-3.221 10.71 1.25 1.25 0 0 0 2.094.886c3.06-3.785 9.019-11.837 5.717-16.91a1.266 1.266 0 0 0-1.933-.242 23.842 23.842 0 0 0-8.455 16.508c-.081 1.047 1.369 1.53 2.094.886a21.2 21.2 0 0 0 6.361-15.621 1.248 1.248 0 0 0-1.852-1.047 18.811 18.811 0 0 0-9.019 16.1 1.259 1.259 0 0 0 2.094.886 25.623 25.623 0 0 0 6.6-11.435c.483-1.852.805-5.476-2.174-5.315-3.14.161-6.442 5.637-7.569 8.052-1.208 2.738-2.5 6.281-.322 8.777a1.242 1.242 0 0 0 1.691 0 22.391 22.391 0 0 0 6.525-11.509c.4-2.013.564-5.4-2.335-5.4-3.06 0-6.361 4.509-7.569 6.845a16.673 16.673 0 0 0-1.772 11.112 1.217 1.217 0 0 0 2.013.564 26.289 26.289 0 0 0 7.408-12.96c.483-2.174 1.127-5.878-2.094-5.8-5.556.161-13.206 14.092-7.972 17.715a1.281 1.281 0 0 0 1.208 0c2.818-1.369 12.8-14.9 6.684-16.669-2.577-.805-5.476 3.543-6.442 5.4a15.3 15.3 0 0 0-1.369 10.951 1.217 1.217 0 0 0 2.013.564c3.785-4.026 8.858-11.193 6.684-16.91a1.226 1.226 0 0 0-1.772-.725 14.942 14.942 0 0 0-6.845 16.427 1.25 1.25 0 0 0 2.013.564 20.755 20.755 0 0 0 5.8-11.515c.322-1.933 1.047-5.476-1.449-6.281C14.832 1 12.336 5.511 11.45 7.443a16.726 16.726 0 0 0-.966 11.032 1.217 1.217 0 0 0 2.013.564 17.465 17.465 0 0 0 4.509-15.622 1.187 1.187 0 0 0-1.449-.805C9.276 4.142 8.632 13 9.678 18.153a1.212 1.212 0 0 0 2.174.322 20.223 20.223 0 0 0 3.785-9.985c.161-1.772.644-5.476-1.772-6.12S10 5.269 9.276 6.96a22.348 22.348 0 0 0-1.61 11.918c.161 1.127 1.61 1.772 2.255.644 2.5-4.348 4.59-10.871 2.335-15.7a.974.974 0 0 0-1.047-.564C5.25 3.336 5.572 14.69 6.618 18.475a1.212 1.212 0 0 0 2.174.322c2.255-3.946 3.7-9.743 1.772-14.172C9.2 1.484 6.7 2.934 5.169 5.269 2.995 8.651 1.626 15.013 3.8 18.717c1.691 2.9 3.865.725 5.073-1.449 1.449-2.657 3.785-9.18 1.369-12-2.174-2.5-4.993.966-6.2 2.738C2.19 10.825.418 15.979 2.753 19.039a3.332 3.332 0 0 0 5.959-.805c.4-.966-.644-1.61-1.449-1.449a11.239 11.239 0 0 0-4.509 1.61c.4.725.805 1.369 1.208 2.094a10.619 10.619 0 0 0 3.624-4.751c.483-1.208-1.208-1.852-2.013-1.208-.483.242-.886.483-1.369.725.483.564.886 1.208 1.369 1.772 2.174-3.543 4.348-7.167 6.522-10.71.725-1.127-1.047-2.577-1.933-1.449-2.9 3.624-5.878 7.328-8.777 10.951l1.933 1.449c1.61-3.785 3.221-7.489 4.831-11.273.483-1.127-.966-2.657-1.933-1.449C5.008 6.074 3.8 7.6 2.512 9.134l1.933 1.449a27.52 27.52 0 0 0 2.818-6.039C7.585 3.417 5.974 2.37 5.25 3.336 3.639 5.35 2.109 7.443.5 9.456l1.933 1.449C3.478 8.571 4.444 6.235 5.491 3.9 6.135 2.531 4.2 1.323 3.4 2.692L.74 7.041c-1.047-.483 1.047.725 1.852-.644z" class="prefix__cls-1" data-name="Path" transform="translate(73.926 3.83)"/>
            <path id="prefix__Path-18" d="M2.853 1.188c0 2.738.081 5.556.161 8.294.081 2.013.966 6.281-.322 7.811-.805.966.242 2.657 1.449 1.933a7.068 7.068 0 0 0 1.208-.966 1.25 1.25 0 0 0-.564-2.013 6.611 6.611 0 0 0-3.946.161c-1.449.483-.886 2.818.644 2.335.886-.081 1.772-.081 2.657-.161a18.8 18.8 0 0 0-.564-2.013 4.859 4.859 0 0 0-.644.644l1.449 1.933c1.774-2.094 1.291-3.546 1.129-6.362C5.349 9 5.269 5.134 5.269 1.35a1.212 1.212 0 1 0-2.416-.161z" class="prefix__cls-1" data-name="Path" transform="translate(117.39 2.194)"/>
            <path id="prefix__Path-19" d="M1.147 4.7Q50.791 1.92 100.6 2.524a1.209 1.209 0 0 0 0-2.416Q50.831-.5 1.147 2.282c-1.529.081-1.529 2.496 0 2.418z" class="prefix__cls-1" data-name="Path" transform="translate(0 68.821)"/>
            <path id="prefix__Path-20" d="M1.178 6.2A683.4 683.4 0 0 1 72.6 2.416 1.209 1.209 0 0 0 72.6 0 662.11 662.11 0 0 0 1.178 3.785c-1.53.161-1.611 2.576 0 2.415z" class="prefix__cls-1" data-name="Path" transform="translate(4.237 89.382)"/>
            <path id="prefix__Path-21" d="M1.147 7.811q47.59-4.952 95.422-5.4a1.209 1.209 0 0 0 0-2.416Q48.738.362 1.147 5.4c-1.529.156-1.529 2.572 0 2.411z" class="prefix__cls-1" data-name="Path" transform="translate(6.442 128.92)"/>
            <path id="prefix__Path-22" d="M25.937 83.634C10.316 77.595 1.055 60.282 2.585 43.855 4.2 27.186 16.6 12.933 31.494 6.25c10.226-4.59 21.5-5.556 31.565-.161a51.986 51.986 0 0 1 19.406 18.2c9.9 15.783 9.18 34.867-1.288 50.328-6.277 9.259-18.118 11.916-28.505 13.526-10.308 1.611-21.178 1.047-29.872-5.314-1.288-.886-2.5 1.208-1.208 2.094 8.052 5.878 17.957 7.086 27.62 6.12 9.582-.966 20.936-3.06 28.667-9.18 7.65-6.039 12.24-17.474 13.85-26.815 1.53-8.938-.161-17.957-3.946-26.171C79.325 10.6 59.838-4.057 39.143 1.016 21.267 5.364 5.484 19.778 1.136 37.9c-4.67 19.245 5.4 40.745 24.077 47.993 1.53.644 2.174-1.691.725-2.255z" class="prefix__cls-1" data-name="Path" transform="translate(111.941 163.255)"/>
            <path id="prefix__Path-23" d="M0 1.147c.966 14.9 1.933 29.794 2.979 44.691.081 1.53 2.5 1.53 2.416 0-.966-14.9-1.933-29.794-2.979-44.691C2.337-.382-.079-.382 0 1.147z" class="prefix__cls-1" data-name="Path" transform="translate(154.867 163.525)"/>
            <path id="prefix__Path-24" d="M1.81 23.372q18.36-10.025 36.236-21.1c1.288-.805.081-2.9-1.208-2.094Q19.083 11.294.6 21.279a1.209 1.209 0 0 0 1.21 2.093z" class="prefix__cls-1" data-name="Path" transform="translate(158.293 187.441)"/>
            <path id="prefix__Path-25" d="M1.147 2.416c13.85 0 27.539 3.3 41.148 5.637 1.53.242 2.174-2.094.644-2.335C29.17 3.382 15.239 0 1.147 0a1.209 1.209 0 0 0 0 2.416z" class="prefix__cls-1" data-name="Path" transform="translate(159.439 208.8)"/>
            <path id="prefix__Path-26" d="M23.453.586C15.722 13.39 7.992 26.113.181 38.916a1.209 1.209 0 0 0 2.094 1.208c7.73-12.8 15.461-25.526 23.272-38.33.805-1.288-1.289-2.577-2.094-1.208z" class="prefix__cls-1" data-name="Path" transform="translate(135.04 209.019)"/>
            <path id="prefix__Path-27" d="M1.147 11.764Q53.69 7.778 105.991 2.423c1.53-.161 1.53-2.577 0-2.416Q53.569 5.322 1.147 9.349c-1.529.161-1.529 2.576 0 2.415z" class="prefix__cls-1" data-name="Path" transform="translate(20.212 311.945)"/>
            <path id="prefix__Path-28" d="M.008 1.147C1.3 19.668 2.665 38.269 3.953 56.79c.081 1.53 2.5 1.53 2.416 0C5.081 38.269 3.712 19.668 2.423 1.147c-.161-1.53-2.577-1.53-2.416 0z" class="prefix__cls-1" data-name="Path" transform="translate(33.269 263.215)"/>
            <path id="prefix__Path-29" d="M1.5 3.3a61.317 61.317 0 0 1 13.85-.805l-1.211-1.209c1.208 18.843 2.979 37.605 5.154 56.287.161 1.53 2.577 1.53 2.416 0-2.255-18.682-3.946-37.525-5.154-56.287A1.238 1.238 0 0 0 15.346.078 67.155 67.155 0 0 0 .852.964C-.678 1.286.047 3.622 1.5 3.3z" class="prefix__cls-1" data-name="Path" transform="translate(34.116 261.305)"/>
            <path id="prefix__Path-30" d="M.018 1.519A265.589 265.589 0 0 1 3.4 35.42c.081 1.53 2.5 1.53 2.416 0A261.458 261.458 0 0 0 2.353.875C2.111-.655-.224-.011.018 1.519z" class="prefix__cls-1" data-name="Path" transform="translate(60.96 281.928)"/>
            <path id="prefix__Path-31" d="M1.147 3.308A99.2 99.2 0 0 0 15 2.422l-1.21-1.208c1.127 11.193 2.335 22.305 3.463 33.5.161 1.53 2.577 1.53 2.416 0-1.127-11.193-2.335-22.305-3.463-33.5C16.125.65 15.722-.074 15 .006A114.242 114.242 0 0 1 1.147.892a1.209 1.209 0 0 0 0 2.416z" class="prefix__cls-1" data-name="Path" transform="translate(62.729 281.347)"/>
            <path id="prefix__Path-32" d="M.008 1.147c1.932 17.394 3.14 34.787 3.623 52.342.081 1.53 2.5 1.53 2.416 0Q5.2 27.278 2.423 1.147C2.262-.382-.153-.382.008 1.147z" class="prefix__cls-1" data-name="Path" transform="translate(89.636 263.054)"/>
            <path id="prefix__Path-33" d="M1.158 2.5c2.577.161 5.234.242 7.811.4 3.624.161 3.7.242 3.785 3.865.242 5.234.483 10.388.805 15.622a262.7 262.7 0 0 0 3.7 29.714c.322 1.53 2.577.886 2.335-.644a280.9 280.9 0 0 1-4.103-37.687c-.161-2.9-.242-5.717-.4-8.616-.081-1.127.081-2.818-.805-3.785-.969-.969-2.66-.805-3.868-.886C7.278.322 4.218.161 1.077 0c-1.449 0-1.449 2.416.081 2.5z" class="prefix__cls-1" data-name="Path" transform="translate(89.694 262.672)"/>
            <path id="prefix__Path-34" d="M1.208 14.19A814.526 814.526 0 0 0 93.892 2.353c1.53-.322.886-2.577-.644-2.335a805.55 805.55 0 0 1-92.04 11.757c-1.608.08-1.608 2.496 0 2.415z" class="prefix__cls-1" data-name="Path" transform="translate(120.968 326.671)"/>
            <path id="prefix__Path-35" d="M1.147 6.53c13.206-1.369 26.493-2.738 39.7-4.107 1.53-.161 1.53-2.577 0-2.416-13.207 1.37-26.493 2.739-39.7 4.107-1.53.161-1.53 2.577 0 2.416z" class="prefix__cls-1" data-name="Path" transform="translate(168.377 318.951)"/>
            <path id="prefix__Path-36" d="M1.208 3.142c6.039-.242 12.159-.483 18.2-.725 1.53-.081 1.53-2.5 0-2.416-6.041.243-12.161.484-18.2.726-1.608.08-1.608 2.496 0 2.415z" class="prefix__cls-1" data-name="Path" transform="translate(190.864 306.233)"/>
            <path id="prefix__Path-37" d="M.087 1.461A35.559 35.559 0 0 1 2.02 15.07c-.081 1.53 2.335 1.53 2.416 0A37.33 37.33 0 0 0 2.422.817C1.859-.632-.477.012.087 1.461z" class="prefix__cls-1" data-name="Path" transform="translate(128.209 37.11)"/>
            <path id="prefix__Path-38" d="M1.147 6.847q33.217-3.382 66.514-4.429c1.53-.081 1.53-2.5 0-2.416-22.225.725-44.45 2.174-66.514 4.429-1.529.161-1.529 2.577 0 2.416z" class="prefix__cls-1" data-name="Path" transform="translate(129.162 31.966)"/>
            <path id="prefix__Path-39" d="M1.147 7.249c22.064-1.61 44.047-3.221 66.111-4.831 1.53-.081 1.53-2.5 0-2.416-22.064 1.61-44.047 3.221-66.111 4.831-1.53.081-1.53 2.5 0 2.416z" class="prefix__cls-1" data-name="Path" transform="translate(131.497 46.219)"/>
            <path id="prefix__Path-40" d="M.018 1.519c.725 4.993 1.449 9.9 2.174 14.9.242 1.53 2.577.886 2.335-.644-.727-4.996-1.45-9.908-2.174-14.9-.242-1.53-2.577-.886-2.335.644z" class="prefix__cls-1" data-name="Path" transform="translate(197.127 33.268)"/>
            <path id="prefix__Path-41" d="M0 1.147a86.39 86.39 0 0 0 .644 9.1c.242 1.53 2.657 1.53 2.416 0a68.175 68.175 0 0 1-.644-9.1 1.209 1.209 0 0 0-2.416 0z" class="prefix__cls-1" data-name="Path" transform="translate(586.562 99.186)"/>
            <path id="prefix__Path-42" d="M1.147 2.416h156.3a1.209 1.209 0 0 0 0-2.416H1.147a1.209 1.209 0 0 0 0 2.416z" class="prefix__cls-1" data-name="Path" transform="translate(587.186 99.126)"/>
            <path id="prefix__Path-43" d="M0 1.208v5.314a1.209 1.209 0 0 0 2.416 0V1.208a1.208 1.208 0 0 0-2.416 0z" class="prefix__cls-1" data-name="Path" transform="translate(743.182 100.092)"/>
            <path id="prefix__Path-44" d="M1.208 2.416h154.285a1.209 1.209 0 0 0 0-2.416H1.208a1.208 1.208 0 0 0 0 2.416z" class="prefix__cls-1" data-name="Path" transform="translate(588.575 107.903)"/>
            <path id="prefix__Path-45" d="M.031 1.519c2.013 9.1 3.7 18.279 5.073 27.459.242 1.53 2.577.886 2.335-.644C5.99 19.154 4.3 9.974 2.367.875a1.212 1.212 0 0 0-2.336.644z" class="prefix__cls-1" data-name="Path" transform="translate(589.51 71.034)"/>
            <path id="prefix__Path-46" d="M1.147 2.418c10.549.322 21.581 1.61 32.129.322 1.53-.161 1.53-2.577 0-2.416C22.728 1.612 11.7.324 1.147 0c-1.53-.081-1.53 2.335 0 2.416z" class="prefix__cls-1" data-name="Path" transform="translate(589.843 69.974)"/>
            <path id="prefix__Path-47" d="M3.309 1.147c-1.127 8.7-2.174 17.393-3.3 26.171-.161 1.53 2.255 1.53 2.416 0 1.127-8.7 2.174-17.393 3.3-26.171.161-1.529-2.255-1.529-2.416 0z" class="prefix__cls-1" data-name="Path" transform="translate(618.603 72.049)"/>
            <path id="prefix__Path-48" d="M12.24 22.149c-1.61-.725-3.543-1.449-4.751-2.738-2.089-2.094-1.933-4.911-2.255-7.65C4.751 8.137 2.738 4.916 2.5 1.212c-.644.322-1.208.725-1.852 1.047C8.133 7.09 14.736 13.935 14.494 23.437c-.081 1.53 2.335 1.53 2.416 0C17.232 13.049 10.066 5.48 1.852.165A1.265 1.265 0 0 0 0 1.212a24.1 24.1 0 0 0 1.53 6.2c1.047 2.9 1.047 5.717 1.61 8.7.886 4.429 3.946 6.361 7.811 8.133 1.449.564 2.657-1.449 1.288-2.094z" class="prefix__cls-1" data-name="Path" transform="translate(590.749 47.586)"/>
            <path id="prefix__Path-49" d="M2.442 31.882c-.886-6.12 3.14-12 5.4-17.393C9.609 10.221 10.9 5.872 10.656 1.2c-.805.081-1.61.242-2.335.322C11.3 15.455 15 28.661 8.643 42.35c-.644 1.369 1.449 2.657 2.094 1.208a42.8 42.8 0 0 0 4.107-19.97c-.4-7.65-2.577-15.219-4.187-22.708a1.189 1.189 0 0 0-2.336.32C8.8 12.395-1.5 21.414.188 32.526c.161 1.53 2.5.886 2.255-.644z" class="prefix__cls-1" data-name="Path" transform="translate(602.882 27.545)"/>
            <path id="prefix__Path-50" d="M0 1.208C.966 30.519 1.288 59.749.725 89.06a1.209 1.209 0 0 0 2.416 0q.725-43.966-.725-87.852a1.208 1.208 0 0 0-2.416 0z" class="prefix__cls-1" data-name="Path" transform="translate(644.701 11.596)"/>
            <path id="prefix__Path-51" d="M2.107 4.117c3.463-2.9 9.341-1.61 13.206-.4 1.449.483 2.094-1.852.644-2.335C11.045-.151 4.6-1.117.416 2.426-.792 3.392.9 5.083 2.107 4.117z" class="prefix__cls-1" data-name="Path" transform="translate(644.446 9.089)"/>
            <path id="prefix__Path-52" d="M0 1.208l.483 86.644a1.209 1.209 0 0 0 2.416 0L2.416 1.207A1.208 1.208 0 0 0 0 1.208z" class="prefix__cls-1" data-name="Path" transform="translate(658.793 11.596)"/>
            <path id="prefix__Path-53" d="M2.107 4.21a8.331 8.331 0 0 1 10.951.4c1.127 1.047 2.818-.644 1.691-1.691a10.814 10.814 0 0 0-14.333-.4C-.792 3.486.9 5.177 2.107 4.21z" class="prefix__cls-1" data-name="Path" transform="translate(646.218 28.08)"/>
            <path id="prefix__Path-54" d="M2.133 4.76a9.713 9.713 0 0 1 12.32-.322c1.288.966 2.416-1.208 1.208-2.094a12.246 12.246 0 0 0-15.3.725c-1.127 1.047.644 2.738 1.772 1.691z" class="prefix__cls-1" data-name="Path" transform="translate(645.145 18.27)"/>
            <path id="prefix__Path-55" d="M1.208 2.337a43.793 43.793 0 0 1 10.71 1.288 13.766 13.766 0 0 0-.886-1.125c.483 21.742.242 43.4-.886 65.144-.081 1.53 2.335 1.53 2.416 0 1.127-21.661 1.369-43.4.886-65.144a1.208 1.208 0 0 0-.886-1.127A45.172 45.172 0 0 0 1.208 0a1.168 1.168 0 1 0 0 2.335z" class="prefix__cls-1" data-name="Path" transform="translate(660.081 31.161)"/>
            <path id="prefix__Path-56" d="M1.759 4.089a9.692 9.692 0 0 1 10.388-.242 1.209 1.209 0 0 0 1.208-2.094 11.88 11.88 0 0 0-12.8.242C-.738 2.8.47 4.894 1.759 4.089z" class="prefix__cls-1" data-name="Path" transform="translate(660.094 52.279)"/>
            <path id="prefix__Path-57" d="M1.81 3.486a10.821 10.821 0 0 1 8.938-.242c1.449.564 2.657-1.449 1.208-2.094A13.342 13.342 0 0 0 .6 1.392C-.767 2.117.441 4.21 1.81 3.486z" class="prefix__cls-1" data-name="Path" transform="translate(659.64 41.367)"/>
            <path id="prefix__Path-58" d="M2.819 11.332c0-1.369-.886-6.361-.081-7.328 1.127-1.369 7.328-.886 8.938-.966 5.556-.322 11.193-.564 16.749-.644 11.193-.161 22.386.242 33.5 1.127l-1.209-1.208a70.8 70.8 0 0 1 .644 10.951 1.209 1.209 0 0 0 2.416 0 82.456 82.456 0 0 0-.644-10.951 1.238 1.238 0 0 0-1.208-1.208A375.23 375.23 0 0 0 20.454.22c-3.221.08-6.361.241-9.582.48-2.336.164-6.684-.319-8.858.728C-1.127 2.877.323 8.755.4 11.413a1.21 1.21 0 0 0 2.416-.081z" class="prefix__cls-1" data-name="Path" transform="translate(676.024 87.713)"/>
            <path id="prefix__Path-59" d="M3.577 9.824c-.161-.886-.966-3.543-.805-4.429.564-2.416 2.9-1.852 4.67-1.852 2.9-.081 5.878-.081 8.777-.161 6.12-.081 12.24-.242 18.44-.322 5.878-.081 11.757-.242 17.635-.322 3.221-.081 6.442-.081 9.582-.161 2.255 0 3.543-.805 4.268 2.094a15.155 15.155 0 0 1 0 4.268c-.081 1.53 2.335 1.53 2.416 0 .081-2.094.725-6.2-.966-7.972-1.53-1.53-4.67-.805-6.522-.725L33.854.725l-26.412.483c-1.771 0-5.556-.725-6.842.886-1.53 1.852.322 6.442.644 8.455.32 1.451 2.656.805 2.333-.725z" class="prefix__cls-1" data-name="Path" transform="translate(683.56 78.189)"/>
            <path id="prefix__Path-60" d="M1.147 4.127c3.624.081 7.328.161 10.951-.081 1.772-.161 3.543-.805 3.382-2.9-.161-1.53-2.577-1.53-2.416 0 .081.886-10.871.644-11.918.564-1.53-.081-1.53 2.335 0 2.416z" class="prefix__cls-1" data-name="Path" transform="translate(736.318 87.027)"/>
            <path id="prefix__Path-61" d="M3.026 9.282a29.329 29.329 0 0 1-.326-4.59c.161-1.61-.242-1.852 1.61-2.094 2.577-.322 5.878.564 8.455.725 5.4.4 10.871.644 16.266.725s10.871.081 16.266-.161c2.416-.081 5.315-.725 7.73-.4a1.824 1.824 0 0 1 2.577.886 1.846 1.846 0 0 1 1.127 2.013c.242.644.322 1.449.564 2.174.564 1.449 2.9.805 2.335-.644-.725-1.772-.242-4.429-1.691-5.959C56.655.585 54.8.907 53.032.988c-7.972.4-16.024.644-24 .564C21.3 1.39 13.575.988 5.844.263 4.234.1 1.737-.542.61 1.068-.678 3 .449 7.108.61 9.2c.161 1.61 2.577 1.61 2.416.081z" class="prefix__cls-1" data-name="Path" transform="translate(691.198 70.599)"/>
            <path id="prefix__Path-62" d="M0 1.147v35.834a1.209 1.209 0 0 0 2.416 0V1.147a1.209 1.209 0 0 0-2.416 0z" class="prefix__cls-1" data-name="Path" transform="translate(755.986 158.452)"/>
            <path id="prefix__Path-63" d="M1.147 2.416h62.81a1.209 1.209 0 0 0 0-2.416H1.147a1.209 1.209 0 0 0 0 2.416z" class="prefix__cls-1" data-name="Path" transform="translate(756.852 157.184)"/>
            <path id="prefix__Path-64" d="M0 1.147v35.834a1.209 1.209 0 0 0 2.416 0V1.147a1.209 1.209 0 0 0-2.416 0z" class="prefix__cls-1" data-name="Path" transform="translate(819.681 157.647)"/>
            <path id="prefix__Path-65" d="M1.147 2.416h62.81a1.209 1.209 0 0 0 0-2.416H1.147a1.209 1.209 0 0 0 0 2.416z" class="prefix__cls-1" data-name="Path" transform="translate(756.046 195.031)"/>
            <path id="prefix__Path-66" d="M2.5 13.133a21.772 21.772 0 0 1 .725-6.039A8.384 8.384 0 0 1 4.348 4.2c.242-.805.805-1.047 1.772-.725 1.288-.564 1.933-.161 2.013 1.288.966 3.382 1.127 7.247 1.61 10.79.242 1.53 2.577.886 2.335-.644-.483-3.543-.644-7.328-1.61-10.79C9.985 2.182 8.536.169 6.361.008.966-.314 0 9.51 0 13.133c.161 1.53 2.577 1.53 2.5 0z" class="prefix__cls-1" data-name="Path" transform="translate(782.076 144.051)"/>
            <path id="prefix__Path-67" d="M0 1.147v26.574a1.209 1.209 0 0 0 2.416 0V1.147a1.209 1.209 0 0 0-2.416 0z" class="prefix__cls-1" data-name="Path" transform="translate(759.932 163.687)"/>
            <path id="prefix__Path-68" d="M1.147 2.416H55.9A1.209 1.209 0 0 0 55.9 0H1.147a1.209 1.209 0 0 0 0 2.416z" class="prefix__cls-1" data-name="Path" transform="translate(761.28 162.418)"/>
            <path id="prefix__Path-69" d="M0 1.147v28.184a1.209 1.209 0 0 0 2.416 0V1.147a1.209 1.209 0 0 0-2.416 0z" class="prefix__cls-1" data-name="Path" transform="translate(815.655 162.881)"/>
            <path id="prefix__Path-70" d="M1.147 2.416h52.342a1.209 1.209 0 0 0 0-2.416H1.147a1.209 1.209 0 0 0 0 2.416z" class="prefix__cls-1" data-name="Path" transform="translate(760.475 190.199)"/>
            <path id="prefix__Path-71" d="M2.581 13.331c1.772-2.577 3.382-3.14 4.751-1.852.242.161.4.322.644.483a13.993 13.993 0 0 0 1.53.805 4.46 4.46 0 0 0 3.06-.161 2.789 2.789 0 0 0 1.61-1.691c.4-1.288-.564-1.53-.644-2.657-.4-.483-.242-.966.483-1.61.162-1.848 1.285-2.255 3.221-1.128a8.281 8.281 0 0 0 1.369.081c1.449-.242 1.61-.725 2.657-1.61 3.382-2.738 7.167-1.369 8.052 2.979.081.564.483 4.268-.161 4.67-.644-.805-1.288-1.53-1.933-2.335a5.792 5.792 0 0 1 4.509 3.221 1.241 1.241 0 0 0 2.094 0c1.61-1.691 3.221-1.772 4.831-.161l1.691-1.691c-.645-.564-1.206-1.127-1.845-1.691-2.094-1.772-1.933-3.785.564-6.12a4.34 4.34 0 0 1 3.7 6.442c-1.852 3.624-6.281 4.107-9.9 3.785v2.416c5.234.322 10.549.644 15.783.966 1.53.081 1.53-2.335 0-2.416-5.234-.322-10.549-.644-15.783-.966-1.53-.081-1.53 2.255 0 2.416 4.187.4 8.777-.4 11.435-4.107 2.094-2.979 1.933-7.489-1.127-9.824a5.766 5.766 0 0 0-7.811.886c-2.9 3.624.483 7.569 3.221 9.985 1.127 1.047 2.818-.564 1.691-1.691a5.459 5.459 0 0 0-8.616.644h2.094c-2.013-3.3-5.8-5.717-9.582-3.7-2.9 1.61-3.946 5.8-1.288 8.214 2.738 2.5 6.684.564 8.133-2.255 1.61-3.221 1.288-8.294-1.047-11.193a6.727 6.727 0 0 0-9.341-1.047c-2.013 1.53-.805 1.772-4.187 1.53a8.665 8.665 0 0 0-3.221 0 4.312 4.312 0 0 0-2.9 2.255 3.073 3.073 0 0 0-.161 2.657c.081.322.966 1.047.886 1.288-.322 1.772-4.993-1.449-5.8-1.61C1.615 6.97-.8 10.835.246 13.975c.483 1.449 2.818.886 2.335-.644z" class="prefix__cls-1" data-name="Path" transform="translate(761.296 168.574)"/>
            <path id="prefix__Path-72" d="M0 1.147v27.7a1.209 1.209 0 0 0 2.416 0v-27.7a1.209 1.209 0 0 0-2.416 0z" class="prefix__cls-1" data-name="Path" transform="translate(832.887 112.714)"/>
            <path id="prefix__Path-73" d="M1.208 2.416h44.45a1.209 1.209 0 0 0 0-2.416H1.208a1.208 1.208 0 0 0 0 2.416z" class="prefix__cls-1" data-name="Path" transform="translate(834.256 111.285)"/>
            <path id="prefix__Path-74" d="M1.147 2.416H45.6A1.209 1.209 0 0 0 45.6 0H1.147a1.209 1.209 0 0 0 0 2.416z" class="prefix__cls-1" data-name="Path" transform="translate(833.592 141.079)"/>
            <path id="prefix__Path-75" d="M0 1.208v28.425a1.209 1.209 0 0 0 2.416 0V1.208a1.208 1.208 0 0 0-2.416 0z" class="prefix__cls-1" data-name="Path" transform="translate(878.706 112.332)"/>
            <path id="prefix__Path-76" d="M0 1.208v26.331a1.209 1.209 0 0 0 2.416 0V1.208a1.208 1.208 0 0 0-2.416 0z" class="prefix__cls-1" data-name="Path" transform="translate(835.625 113.701)"/>
            <path id="prefix__Path-77" d="M1.208 2.416h42.436a1.209 1.209 0 0 0 0-2.416H1.208a1.208 1.208 0 0 0 0 2.416z" class="prefix__cls-1" data-name="Path" transform="translate(835.303 138.986)"/>
            <path id="prefix__Path-78" d="M1.147 2.416h41.068a1.209 1.209 0 0 0 0-2.416H1.147a1.209 1.209 0 0 0 0 2.416z" class="prefix__cls-1" data-name="Path" transform="translate(836.007 112.976)"/>
            <path id="prefix__Path-79" d="M0 1.147v25.285a1.209 1.209 0 0 0 2.416 0V1.147a1.209 1.209 0 0 0-2.416 0z" class="prefix__cls-1" data-name="Path" transform="translate(877.659 113.359)"/>
            <path id="prefix__Path-80" d="M1.846 5.582C8.529 2.361 16.1.831 22.863 4.777a1.209 1.209 0 0 0 1.208-2.094C16.582-1.745 8.127-.135.638 3.489c-1.45.644-.161 2.737 1.208 2.093z" class="prefix__cls-1" data-name="Path" transform="translate(843.12 129.458)"/>
            <path id="prefix__Path-81" d="M3.372 11.356C1.922 9.585 5.627 9.021 6.11 8.055c.4-.725-.161-2.979.081-2.9A1.223 1.223 0 0 0 7.72 4.029c-.08-3.785 4.026 2.254 3.865 2.013a4.536 4.536 0 0 0 1.772 1.449c1.127.483 3.543-.805 4.187-.322a1.217 1.217 0 0 0 2.013-.564 14.724 14.724 0 0 1 2.013-.644 1.25 1.25 0 0 0 2.094.886c2.174 1.691 2.5 3.06.886 4.026-1.208 1.047.564 2.738 1.691 1.691 2.094-1.772 3.543-4.831 1.61-7.328a3.74 3.74 0 0 0-5.959-.081c.725.322 1.369.564 2.094.886a2.942 2.942 0 0 0-2.818-3.381c-2.094-.161-3.3 1.61-3.946 3.382a18.8 18.8 0 0 0 2.013-.564c-1.369-1.127-1.61-.644-3.14-.725-4.107-.161-2.9-2.738-5.556-4.268S5.3 1.291 5.3 4.029A18.576 18.576 0 0 1 6.834 2.9c-1.208-.242-2.657-.322-3.463.725-.886 1.127.483 2.013.161 2.818C3.05 7.733.715 7.33.151 9.021c-.564 1.61.564 3.06 1.53 4.187s2.657-.644 1.691-1.852z" class="prefix__cls-1" data-name="Path" transform="translate(841.594 120.302)"/>
            <path id="prefix__Path-82" d="M2.982 8.491A4.989 4.989 0 0 1 2.5 5.27c.081-.725.725-3.06 1.852-2.738.805.242 1.61 2.335 1.772 3.06a8.928 8.928 0 0 1 .322 3.865c-.161 1.53 2.255 1.53 2.416 0a10.345 10.345 0 0 0-1.127-6.2C6.928 1.646 5.4-.528 3.3.116 1.694.6.647 2.612.245 4.142a8.043 8.043 0 0 0 .644 5.637c.725 1.369 2.738.161 2.094-1.288z" class="prefix__cls-1" data-name="Path" transform="translate(851.646 101.989)"/>
            <path id="prefix__Path-83" d="M0 1.208v36.961a1.209 1.209 0 0 0 2.416 0V1.208a1.208 1.208 0 0 0-2.416 0z" class="prefix__cls-1" data-name="Path" transform="translate(836.43 154.124)"/>
            <path id="prefix__Path-84" d="M1.208 2.416h37.444a1.209 1.209 0 0 0 0-2.416H1.208a1.208 1.208 0 0 0 0 2.416z" class="prefix__cls-1" data-name="Path" transform="translate(836.43 152.031)"/>
            <path id="prefix__Path-85" d="M0 1.147v38.974a1.209 1.209 0 0 0 2.416 0V1.147a1.209 1.209 0 0 0-2.416 0z" class="prefix__cls-1" data-name="Path" transform="translate(873.874 152.091)"/>
            <path id="prefix__Path-86" d="M1.147 2.416h35.431a1.209 1.209 0 0 0 0-2.416H1.147a1.209 1.209 0 0 0 0 2.416z" class="prefix__cls-1" data-name="Path" transform="translate(837.457 192.615)"/>
            <path id="prefix__Path-87" d="M.068 1.147C-.5 5.818 2.484 10.891 7.476 11.455c5.234.564 9.1-3.463 8.938-8.536-.081-1.53-2.5-1.53-2.416 0 .162 3.781-2.737 6.845-6.683 6.039-3.623-.724-5.153-4.428-4.831-7.811.161-1.529-2.255-1.529-2.416 0z" class="prefix__cls-1" data-name="Path" transform="translate(849.568 166.505)"/>
            <path id="prefix__Path-88" d="M6.524 1.147c-.161 1.127.564 2.013.242 3.06-.483 1.61-2.577 3.14-3.624 4.348C1.371 10.649.082 12.743 0 15.561c-.081 1.53 2.335 1.53 2.416 0 .161-3.7 3.3-5.878 5.4-8.616a7.38 7.38 0 0 0 1.53-2.657c.242-1.127-.564-2.013-.4-3.14.154-1.53-2.26-1.53-2.422-.001z" class="prefix__cls-1" data-name="Path" transform="translate(851.245 176.248)"/>
            <path id="prefix__Path-89" d="M9.6 21.666c-2.818-.161-8.133-1.933-6.845-5.878.644-2.094 3.3-2.174 4.429-3.624 1.53-1.852.242-2.9-.966-4.268-1.125-1.288-3.46-1.771-.318-4.589 1.772-1.61 4.67.4 6.12 1.61.886.805 1.047 1.691 2.255 2.255a3.591 3.591 0 0 0 2.738.242c1.449-.644 3.06-4.912 4.59.4a1.126 1.126 0 0 0 1.449.805c.081 1.691.161 3.3.161 4.993-.966 1.208.725 2.9 1.691 1.691 1.53-1.933 3.3-4.348 2.174-6.925a3.827 3.827 0 0 0-4.751-2.094c.483.242.966.564 1.449.805-.644-2.174-1.691-4.429-4.187-4.59a3.358 3.358 0 0 0-2.174.483 10.518 10.518 0 0 1-.966 1.208c-1.691.886-2.174-.644-3.14-1.61-1.691-1.852-3.06-2.9-5.8-2.5-2.094.322-5.073 1.772-5.8 3.946C.826 6.608 3 7.333 3.966 9.266c1.047.4 1.047.886-.081 1.449a1.714 1.714 0 0 1-.966.886 8.846 8.846 0 0 0-1.127.725 7.089 7.089 0 0 0-1.45 2.335C-1.51 20.539 4.53 23.679 9.361 24a1.176 1.176 0 1 0 .239-2.334z" class="prefix__cls-1" data-name="Path" transform="translate(842.61 155.649)"/>
            <path id="prefix__Path-90" d="M2.393 6.628c-.081-1.208-.483-3.382.966-4.107 1.53-.725 1.288 1.61 1.127 2.416-.322 1.53 2.013 2.174 2.335.644a6.026 6.026 0 0 0-.241-3.946A3.1 3.1 0 0 0 3.52.024c-3.3.4-3.7 3.946-3.463 6.6 0 1.53 2.416 1.53 2.335 0z" class="prefix__cls-1" data-name="Path" transform="translate(850.706 146.369)"/>
            <path id="prefix__Path-91" d="M0 1.208v35.511a1.209 1.209 0 0 0 2.416 0V1.208a1.208 1.208 0 0 0-2.416 0z" class="prefix__cls-1" data-name="Path" transform="translate(839.409 153.883)"/>
            <path id="prefix__Path-92" d="M1.147 2.416h32.13a1.209 1.209 0 0 0 0-2.416H1.147a1.209 1.209 0 0 0 0 2.416z" class="prefix__cls-1" data-name="Path" transform="translate(839.711 189.958)"/>
            <path id="prefix__Path-93" d="M2.416 38.43V1.147a1.209 1.209 0 0 0-2.416 0V38.43a1.209 1.209 0 0 0 2.416 0z" class="prefix__cls-1" data-name="Path" transform="translate(871.458 153.057)"/>
            <path id="prefix__Path-94" d="M1.147 2.416h31.808a1.209 1.209 0 0 0 0-2.416H1.147a1.209 1.209 0 0 0 0 2.416z" class="prefix__cls-1" data-name="Path" transform="translate(840.275 152.997)"/>
        </g>
        <path id="prefix__Path-95" d="M65.619 4a17.449 17.449 0 0 0-18.682-2.254c-7.006 3.543-10.79 11.837-9.019 20.131 1.449 11.032 2.9 22.144 4.348 33.176C12.875 68.5-1.136 77.278.072 81.3c1.449 4.912 25.285 2.818 71.586-6.12C69.645 51.43 67.632 27.756 65.619 4z" class="prefix__cls-5" data-name="Path" transform="translate(436.381 586.567)"/>
        <path id="prefix__Path-96" d="M23.387 10.516c-1.127 16.184-2.979 42.436-6.12 74.968-3.867 40.826-5.475 81.974-10.951 122.639-5.637 42.195-11.837 71.1 2.416 81.169 5.154 3.624 11.354 3.624 15.783 3.06 4.67-1.208 9.341-2.5 14.011-3.7 4.59 2.255 10.79 4.429 15.783 1.852 14.655-7.489.805-45.9 1.852-100.978.725-36.317 7.73-72.553 17.071-120.143 7.086-36.317 12.481-55.159 2.416-64.42-12.24-11.354-39.377-.483-52.261 5.556z" class="prefix__cls-6" data-name="Path" transform="translate(458.965 318.669)"/>
        <path id="prefix__Path-97" d="M21.87 2.92A284.182 284.182 0 0 1 28.151 65c-.4 42.356-10.307 69.09-17.474 100.9C4.155 194.729-2.126 236.763.692 290.956c4.268-.805 8.616-1.691 12.884-2.5a15.564 15.564 0 0 0 10.388 2.9c.805-.081 6.12-.644 9.582-4.59 4.268-4.831 3.382-12 2.9-15.461-1.852-15.058-2.255-30.277-3.785-45.416a299.664 299.664 0 0 1-1.288-35.833 325.5 325.5 0 0 1 2.5-33.337c3.543-29.875 6.764-34.948 13.77-78.351 5.315-32.693 2.979-26.734 4.993-34.142 1.852-6.6 4.993-16.185 3.3-28.345-.805-5.717-2.255-8.938-4.59-11.273C46.511-.14 39.344-.06 35.076.021A34.979 34.979 0 0 0 21.87 2.92z" class="prefix__cls-7" data-name="Path" transform="translate(483.593 318.696)"/>
        <path id="prefix__Path-98" fill="#6d6c6c" d="M35.833 0a224.38 224.38 0 0 0-16.266 52.1c-6.764 37.363-.081 56.367-5.8 96.308A262.909 262.909 0 0 1 0 202.6c2.9.4 5.8.805 8.777 1.288 4.348 1.53 9.824 2.657 13.77 0 7.086-4.751 4.67-18.682 2.9-35.028 0 0-2.174-20.131-2.5-58.38-.161-21.178 1.772-36.8 4.59-59.588C30.036 30.438 33.1 13.126 35.833 0z" data-name="Path" opacity="0.1" transform="translate(492.579 403.751)"/>
        <path id="prefix__Path-99" d="M65.619 4a17.449 17.449 0 0 0-18.682-2.254c-7.006 3.543-10.79 11.837-9.019 20.131 1.449 11.032 2.9 22.144 4.348 33.176C12.875 68.5-1.136 77.278.072 81.3c1.449 4.912 25.285 2.818 71.586-6.12C69.565 51.43 67.552 27.756 65.619 4z" class="prefix__cls-5" data-name="Path" transform="translate(538.003 580.447)"/>
        <path id="prefix__Path-100" d="M66.308 11.388c4.67 38.249 9.663 77.706 14.978 118.693 3.624 28.184 4.509 34.867 7.328 45.819 4.831 19 11.354 35.189 16.991 64.581 2.657 13.689 4.026 24.8-2.335 33.176-4.751 6.281-14.011 11.273-16.1 9.341-.886-.886-.322-3.14.483-5.154-1.933 1.852-14.172 13.367-23.916 9.341-5.717-2.335-8.052-9.019-9.18-12.642-11.435-35.028-13.287-70.137-13.287-70.137-.725-13.528-2.5-27.378-5.959-55.159a556.013 556.013 0 0 0-17.8-85.678C15.98 62.6 1 52.617.036 34.176c-.081-1.369-.644-15.3 8.133-24.721 11.6-12.481 36.4-13.367 58.139 1.933z" class="prefix__cls-6" data-name="Path" transform="translate(507.279 315.301)"/>
        <path id="prefix__Path-101" d="M2.365.817c-2.9 8.375-3.7 17.8.886 25.768C7.2 33.43 13.558 40.918 21.289 43.334c1.449.483 2.094-1.852.644-2.335-7.086-2.174-13.045-9.341-16.588-15.622-4.268-7.408-3.3-16.1-.644-23.916C5.264.012 2.929-.632 2.365.817z" class="prefix__cls-9" data-name="Path" transform="translate(506.238 335.535)"/>
        <path id="prefix__Path-102" d="M0 1.147A28.725 28.725 0 0 0 21.019 27.64a1.211 1.211 0 0 0 .644-2.335A26.334 26.334 0 0 1 2.418 1.147C2.337-.382-.079-.382 0 1.147z" class="prefix__cls-9" data-name="Path" transform="translate(506.186 350.182)"/>
        <path id="prefix__Path-103" d="M0 0c2.094 6.281 5.315 16.427 8.858 28.989 10.307 36.4 28.1 99.448 29.23 175.3.161 12.642.644 76.982 6.442 77.3 1.369.081 3.624-3.463 6.684-2.657 2.094.564 2.174 2.5 4.026 3.221 4.026 1.53 10.71-5.4 13.931-10.468a25.639 25.639 0 0 0 4.268-11.515c.322-2.577.081-4.429-.805-9.9-1.288-8.455-1.933-12.642-2.416-14.736-3.463-16.347-9.663-32.049-14.736-54.193-2.174-9.341-3.624-17.715-5.4-27.378-.564-3.06-2.094-12-3.785-23.111-3.785-25.446-4.993-42.92-7.489-65.225-1.369-12.159-3.463-29.311-6.684-50.167A22.8 22.8 0 0 0 27.3 8.455c-.886-.805-3.624-3.3-11.032-5.637A52.567 52.567 0 0 0 0 0z" class="prefix__cls-7" data-name="Path" transform="translate(541.86 316.22)"/>
        <path id="prefix__Path-104" fill="#6d6c6c" d="M9.94 0c4.429 20.614 7.408 38.249 9.421 52.1 3.221 22.547 3.382 30.76-.805 39.457C12.275 104.682-.77 112.493.036 113.54c.322.4 2.416-.4 9.663-5.073.242 1.933.805 4.107 2.416 4.831 4.107 1.772 13.206-7.086 17.152-15.541 5.4-11.676 1.449-23.674-2.174-35.189C22.583 47.993 16.543 27.217 9.94 0z" data-name="Path" opacity="0.2" transform="translate(584.261 485.564)"/>
        <path id="prefix__Path-105" d="M154.828.072c-7.891-1.047-15.139 9.26-29.23 29.794a321.558 321.558 0 0 0-20.856 34.867c-9.582-.483-19.165-.966-28.747-1.53-8.938-.483-17.876-.966-26.815-1.53a158.836 158.836 0 0 0-15.38-4.509C23.251 54.588 1.428 50.32.059 54.1c-.4 1.208 1.047 3.7 10.388 9.582a22.907 22.907 0 0 0 0 16.185c.483 1.208 3.14 7.73 9.421 11.112 8.052 4.268 19.165 1.933 27.3-6.039 6.281 3.785 40.343 23.674 72.392 10.066 10.468-4.429 17.8-11.193 24.318-17.152 11.837-10.871 27.378-25.124 27.781-44.933.322-14.333-7.247-31.566-16.83-32.854z" class="prefix__cls-6" data-name="Path" transform="translate(332.275 189.724)"/>
        <path id="prefix__Path-106" d="M.255 1.543c3.14 3.14 6.2 6.522 9.743 9.18 3.463 2.577 7.408 4.026 11.435 5.4 1.127.4 1.61-1.369.483-1.772C17.648 12.9 13.542 11.287 10 8.388A115.519 115.519 0 0 1 1.543.255C.738-.55-.55.738.255 1.543z" class="prefix__cls-11" data-name="Path" transform="translate(331.436 243.252)"/>
        <path id="prefix__Path-107" d="M11.362.059a20.142 20.142 0 0 0-8.053 5.315C1.779 7.065-.475 9.722.088 12.138c.564 2.738 3.946 2.738 6.2 2.738A20.944 20.944 0 0 0 16.516 11.9c.966-.564.081-2.174-.886-1.53a18.911 18.911 0 0 1-6.522 2.5c-2.013.322-7.891 1.047-6.845-2.738 1.047-3.865 6.2-7.006 9.663-8.294.966-.4.483-2.174-.564-1.772z" class="prefix__cls-11" data-name="Path" transform="translate(358.417 253.03)"/>
        <path id="prefix__Path-108" d="M.978.642C-.713 6.037-.713 11.271 5.085 13.848c4.268 1.933 10.468.966 12.642-3.624.483-1.047-1.047-1.933-1.53-.886-1.772 3.785-6.845 4.429-10.388 2.818C.9 9.983 1.381 5.554 2.75 1.125A.919.919 0 0 0 .978.642z" class="prefix__cls-11" data-name="Path" transform="translate(340.698 254.219)"/>
        <path id="prefix__Path-109" d="M0 .846c.322 4.59 3.14 9.1 7.972 9.985a8.817 8.817 0 0 0 9.743-5.637c.4-1.047-1.288-1.53-1.772-.483A7.079 7.079 0 0 1 7.572 8.9C4.029 7.851 2.016 4.308 1.774.846c0-1.128-1.852-1.128-1.774 0z" class="prefix__cls-11" data-name="Path" transform="translate(341.27 265.933)"/>
        <path id="prefix__Path-110" d="M1.248 1.71C7.529.582 5.435 11.775.846 11.372c-1.127-.081-1.127 1.691 0 1.852 3.865.322 5.959-4.429 6.2-7.65A5.188 5.188 0 0 0 .765.1c-1.127.08-.644 1.771.483 1.61z" class="prefix__cls-11" data-name="Path" transform="translate(357.418 270.303)"/>
        <path id="prefix__Path-111" d="M1.7 1.721c0-.081.081-.081.081-.161-.322.081-.564.161-.886.242.644.161.725 2.255.644 2.657A4.355 4.355 0 0 1 .255 7.277c-.805.805.483 2.094 1.288 1.288A6.184 6.184 0 0 0 3.315 3.9C3.234 2.607 2.832.352 1.3.03a.909.909 0 0 0-.884.242c0 .08-.081.08-.081.161C-.309 1.319.9 2.607 1.7 1.721z" class="prefix__cls-11" data-name="Path" transform="translate(356.479 263.769)"/>
        <path id="prefix__Path-112" d="M.9 1.774a2.941 2.941 0 0 1 2.653 3.785.919.919 0 0 0 1.772.483A4.689 4.689 0 0 0 .977 0 .888.888 0 1 0 .9 1.774z" class="prefix__cls-11" data-name="Path" transform="translate(352.939 257.757)"/>
        <path id="prefix__Path-113" d="M158.143 0a136.961 136.961 0 0 1-12.32 26.251c-6.281 10.388-13.287 21.9-26.9 31.566a77.248 77.248 0 0 1-42.351 14.816 77.706 77.706 0 0 1-42.6-11.193c-4.831 3.624-8.133 3.865-10.307 3.382-1.933-.483-2.657-1.449-6.039-2.5A27.161 27.161 0 0 0 11.1 61.2c-4.67-.322-9.5-.644-10.79 1.53-1.691 2.979 3.785 9.341 8.052 12.8a21.266 21.266 0 0 0 10.066 4.912c11.193 1.772 19.487-7.972 19.97-8.536a100.933 100.933 0 0 0 11.676 6.281c8.133 3.785 19.648 9.019 34.948 8.938a68.076 68.076 0 0 0 32.532-8.294c3.06-1.772 8.777-6.764 20.131-16.83 10.549-9.341 14.414-13.448 17.957-19.084a45.653 45.653 0 0 0 6.281-13.448c3.3-12.562-1.127-24-3.785-29.472z" class="prefix__cls-12" data-name="Path" transform="translate(340.878 202.761)"/>
        <path id="prefix__Path-114" fill="#6d6c6c" d="M151.551 0a102.16 102.16 0 0 1-8.777 21.1c-4.268 7.73-15.541 27.62-39.457 39.86C96.23 64.581 83.991 70.7 67 70.379a71 71 0 0 1-38.088-12.32 53.009 53.009 0 0 1-14.333 6.281C6.2 66.513.164 65.789 0 67s5.64 3.781 11.679 3.62c8.455-.242 14.414-5.8 16.588-8.052 5.556 4.026 26.332 18.2 53.549 14.575 21.017-2.818 34.3-14.655 45.98-25.124 8.7-7.811 18.762-17.071 22.627-32.532A52.792 52.792 0 0 0 151.551 0z" data-name="Path" opacity="0.15" transform="translate(351.738 212.424)"/>
        <path id="prefix__Path-115" d="M8.679 8.115c-1.61 1.852-4.429 5.8-6.845 24.641-3.221 25.607-1.53 45.9 0 61.038 1.772 17.956 4.266 39.617 7.892 64.258a144.319 144.319 0 0 0 65.225 4.831 141.307 141.307 0 0 0 32.129-9.1 328.3 328.3 0 0 1-1.047-47.107c2.738-55.32 5.234-70.7 5.234-70.7 1.853-11.031 3.544-17.876-.567-24.076-4.1-6.362-11.913-8.536-36.8-10.146C36.138-.823 17.135-1.87 8.679 8.115z" class="prefix__cls-2" data-name="Path" transform="translate(469.888 182.004)"/>
        <path id="prefix__Path-116" d="M0 0c2.5 8.858 4.59 18.279 6.361 28.264C15.541 80.766 9.1 127.31 0 162.016c4.67-.322 9.582-.886 14.817-1.772a158.451 158.451 0 0 0 28.908-7.73c-1.127-16.024-1.449-29.714-1.449-40.584a529.12 529.12 0 0 1 3.865-62.81c1.449-11.273 2.979-20.695 4.268-27.539a15.756 15.756 0 0 0-1.047-9.18 16.851 16.851 0 0 0-7.086-7.408c-5.234-3.14-10.549-3.14-13.448-3.14C21.9 1.61 12.723 1.208 0 0z" class="prefix__cls-7" data-name="Path" transform="translate(532.922 183.918)"/>
        <path id="prefix__Path-117" d="M41.953 0C27.7 36.961 24.721 63.373 25.043 81.169c.081 6.684.805 22.708-7.73 39.538A72.905 72.905 0 0 1 0 142.609a124.923 124.923 0 0 0 15.863-3.14 133.448 133.448 0 0 0 19.084-6.684c-.725-20.775-.644-43.322.725-67.4C36.88 41.873 39.135 20.051 41.953 0z" class="prefix__cls-14" data-name="Path" transform="translate(540.733 202.922)"/>
        <path id="prefix__Path-118" d="M19.03.882c9.9-4.348 23.352 8.375 32.049 16.508 9.5 8.938 28.747 27.056 29.714 56.689.805 24.721-11.515 42.6-17.635 50.086a76.264 76.264 0 0 1-26.9 20.775 35.5 35.5 0 0 1-2.335 11.837c-1.047 2.577-6.361 16.1-16.508 16.669-1.369.081-6.039.081-11.435-4.993a4.157 4.157 0 0 1-2.979-1.691 4.652 4.652 0 0 1-.081-4.993 5.574 5.574 0 0 1-2.818-3.7 5.46 5.46 0 0 1 1.449-4.831c.081-1.369.4-3.14 1.691-4.026 1.449-.966 2.979-.161 5.315-.322a11.015 11.015 0 0 0 6.281-2.979c-2.9-.805-9.421-2.9-9.26-5.234.081-2.738 9.5-4.348 11.6-4.751a49.829 49.829 0 0 1 12.562-.483c1.772-3.221 4.348-7.972 7.408-13.689 5.154-9.663 7.73-14.494 9.26-17.957A85.235 85.235 0 0 0 53.414 74a201.317 201.317 0 0 0-16.266-14.174C21.848 47.908 16.694 47.667 12.507 40.9 4.616 28.26 8.4 5.552 19.03.882z" class="prefix__cls-6" data-name="Path" transform="translate(552.705 189.478)"/>
        <path id="prefix__Path-119" d="M.023 1.108c1.288 6.281 10.951 4.831 14.816 2.576.966-.564.081-2.174-.886-1.53C11.135 3.846 2.76 5.7 1.794.705 1.553-.5-.219-.02.023 1.108z" class="prefix__cls-11" data-name="Path" transform="translate(553.433 340.639)"/>
        <path id="prefix__Path-120" d="M.365 2.106C5.2 5.569 12.283 3.958 17.356 1.623c1.044-.483.161-2.013-.886-1.53C11.96 2.106 5.6 3.556 1.331.576c-.966-.724-1.852.886-.966 1.53z" class="prefix__cls-11" data-name="Path" transform="translate(554.057 349.706)"/>
        <path id="prefix__Path-121" d="M.451 2.841a15.088 15.088 0 0 0 15.38-1.127c.966-.644.081-2.255-.886-1.53A13.2 13.2 0 0 1 1.417 1.311C.37.747-.6 2.277.451 2.841z" class="prefix__cls-11" data-name="Path" transform="translate(557.595 356.058)"/>
        <path id="prefix__Path-122" d="M12.966 3.661c-1.61 5.476 17.232 10.71 33.74 28.425 5.717 6.12 17.393 18.6 20.131 37.122 3.463 22.95-8.536 41.309-12.964 47.912a83.063 83.063 0 0 1-25.2 24.56 26.348 26.348 0 0 1-6.6 17.393c-1.288 1.449-6.361 7.006-13.77 7.811-4.268.483-8.133-.725-8.294-.242-.081.483 2.9 1.127 6.764 3.785 2.5 1.691 2.577 2.416 3.785 2.979 4.993 2.335 12.884-4.751 13.77-5.476 8.214-7.489 9.18-18.6 9.341-22.708 1.852-1.047 4.348-2.5 7.247-4.429 2.979-2.013 11.757-7.811 18.682-15.461a73.944 73.944 0 0 0 15.855-29.873c1.61-6.039 6.039-23.513-1.047-42.6-3.14-8.294-7.167-13.689-14.414-23.111C53.551 21.3 48.8 17.109 39.62 8.976 33.017 3.1 29.071.36 23.756.038c-3.624-.242-9.9.644-10.79 3.624z" class="prefix__cls-15" data-name="Path" transform="translate(555.306 189.759)"/>
        <path id="prefix__Path-123" d="M35.672 0a84.942 84.942 0 0 1 6.12 34.787 82.19 82.19 0 0 1-8.292 33.74A85.556 85.556 0 0 1 0 103.957 69.724 69.724 0 0 0 24 88.9c25.2-24.319 21.5-58.623 21.174-61.038A72.32 72.32 0 0 0 35.672 0z" class="prefix__cls-15" data-name="Path" transform="translate(587.759 230.301)"/>
        <path id="prefix__Path-124" d="M70.379 44.923c4.831 16.185 6.6 25.607 13.448 40.423a174.549 174.549 0 0 0 8.455 16.024 84.766 84.766 0 0 1-32.935 8.13 84.162 84.162 0 0 1-21.742-2.094 86.052 86.052 0 0 0 .483-16.266 81.339 81.339 0 0 0-3.865-19.487c-7.73-.966-15.541-2.013-23.272-2.979-1.53-3.382-3.06-6.845-4.59-10.227-2.093-.077-4.267-.157-6.361-.238 1.61-4.67 4.026-12 6.845-21.1C12.079 19.96 12 17.544 14.817 13.679 22.627 3.13 40.1-3.634 51.616 2.084c6.845 3.3 10.871 16.508 18.762 42.839z" class="prefix__cls-6" data-name="Path" transform="translate(460.772 83.434)"/>
        <path id="prefix__Path-125" d="M1.147 3.158a73.5 73.5 0 0 0 11.918-.805c1.53-.242.886-2.577-.644-2.335A66.29 66.29 0 0 1 1.147.742a1.209 1.209 0 0 0 0 2.416z" class="prefix__cls-11" data-name="Path" transform="translate(459.785 139.773)"/>
        <path id="prefix__Path-126" d="M1.81 3.006a5.249 5.249 0 0 1 6.684 1.53c.886 1.288 2.979.081 2.094-1.208A7.724 7.724 0 0 0 .6.913c-1.367.724-.159 2.818 1.21 2.093z" class="prefix__cls-11" data-name="Path" transform="translate(457.593 109.165)"/>
        <path id="prefix__Path-127" d="M1.484 2.7a6.761 6.761 0 0 1 7.73 2.657c.886 1.288 2.979.081 2.094-1.208A9.246 9.246 0 0 0 .84.443 1.172 1.172 0 0 0 1.484 2.7z" class="prefix__cls-11" data-name="Path" transform="translate(476.922 112.292)"/>
        <path id="prefix__Path-128" d="M2.5 5.818a4.19 4.19 0 0 1 .564-2.577 2.447 2.447 0 0 1 .4-.564c-.322-.4-.483-.483-.4-.081-.164.162-.079.967-.164 1.204a7.086 7.086 0 0 1-.4 1.208 1.76 1.76 0 0 1-.242.4c.4.725.644.805.805.242a8.121 8.121 0 0 0 .727-1.443l.725-1.449a1.223 1.223 0 0 0-1.933-1.45A4.433 4.433 0 0 0 1.455 3.16a1.211 1.211 0 0 0 2.335.64 1.369 1.369 0 0 1 .483-.8L2.341 1.55C1.777 2.677 1.133 3.8.65 5.012a1.893 1.893 0 0 0 .564 2.5c2.174 1.369 3.543-1.449 3.946-3.14C5.481 2.758 5.481-.624 2.824.1.73.745-.075 3.8.005 5.657c.161 1.691 2.577 1.691 2.5.161z" class="prefix__cls-11" data-name="Path" transform="translate(476.468 118.19)"/>
        <path id="prefix__Path-129" d="M0 28.644a40.586 40.586 0 0 1 5.717-15.219C7.086 11.331 9.9 6.9 14.494 3.923c8.777-5.717 22.225-5.234 31.968 1.772C56.045 12.539 60.8 24.779 58.7 37.018 39.216 34.281 19.567 31.462 0 28.644z" class="prefix__cls-3" data-name="Path" transform="translate(472.77 72.656)"/>
        <path id="prefix__Path-130" d="M3.473 7.278q45.3 5.677 90.51 11.354c4.59.564 4.59-6.684 0-7.247Q48.687 5.708 3.473.031c-4.673-.563-4.59 6.684 0 7.247z" class="prefix__cls-11" data-name="Path" transform="translate(437.248 94.263)"/>
        <path id="prefix__Path-131" fill="#161616" stroke="#161616" stroke-miterlimit="10" stroke-width="2px" d="M52.762 1.412c-5.315 1.933-8.455 5.637-12 9.9C33.195 20.5 35.449 23.879 30.135 29.6c-8.455 9.1-17.071 3.7-24.641 12.638C-.948 49.807-.062 60.034.18 62.369.421 64.624 1.549 73.723 9.037 80c6.523 5.4 15.219 6.6 15.783 5.4.161-.4-.483-1.53-5.315-4.751a17.325 17.325 0 0 0 6.442 2.738c3.3.564 6.442 0 6.442-.483 0-.4-1.772-.322-3.14-1.772a6.266 6.266 0 0 1-1.369-2.738c2.657 1.691 5.959 3.221 9.1 2.255 8.62-2.577 10.146-21.662 10.629-28.023 1.61-20.453-4.268-31.646 2.9-38.893.564-.644 3.463-3.543 6.684-2.9 4.026.725 7.086 6.925 5.8 11.032-1.127 3.543-5.154 4.509-4.912 5.234.4.805 7.167-.483 12.884-4.993 2.094-1.61 3.785-2.979 4.67-5.4 1.53-4.268-.242-9.1-2.657-12-4.993-5.8-14.414-5.4-20.212-3.3z" data-name="Path" transform="translate(459.223 107.457)"/>
        <path id="prefix__Path-132" d="M8.536 5.556c-1.288.161-3.14.161-3.221-.242-.081-.242.4-.564.4-.564a6.249 6.249 0 0 1-3.46 2.175A3.909 3.909 0 0 1 0 6.442 183.084 183.084 0 0 1 9.824 32.21a183.039 183.039 0 0 1 6.12 29.39 46.786 46.786 0 0 0 14.011-2.174 48.392 48.392 0 0 0 10.951-5.073A120.9 120.9 0 0 1 27.862 27.7c-.966-2.9-3.06-9.743-4.026-13.126C21.983 8.455 20.453 3.382 19.487 0a19.145 19.145 0 0 1-2.416 1.933 17.311 17.311 0 0 1-8.535 3.623z" class="prefix__cls-17" data-name="Path" transform="translate(511.422 129.725)"/>
        <path id="prefix__Path-133" fill="#2a4480" d="M0 .338a18.206 18.206 0 0 1 14.655 15.139c1.047 8.777-5.4 14.817-6.039 15.3 8.375 1.047 16.669 2.013 25.043 3.06a28.639 28.639 0 0 0-.322-7.65 32.482 32.482 0 0 0-8.616-17.152C22.788 7.1 15.944.58 5.717.016A36.467 36.467 0 0 0 0 .338z" data-name="Path" transform="translate(498.296 72.698)"/>
        <path id="prefix__Path-134" d="M0 0c.4 4.348.725 8.777 1.127 13.126l409.951.725C412.286 9.5 413.494 5.073 414.7.725z" class="prefix__cls-9" data-name="Path" transform="translate(321.061 425.492)"/>
        <path id="prefix__Path-135" d="M1.208 2.416h4.348a1.209 1.209 0 0 0 0-2.416H1.208a1.208 1.208 0 0 0 0 2.416z" class="prefix__cls-11" data-name="Path" transform="translate(325.329 423.64)"/>
        <path id="prefix__Path-136" d="M2.295 4.831h414.863c3.141 0 3.141-4.831 0-4.831H2.295c-3.06 0-3.06 4.831 0 4.831z" class="prefix__cls-11" data-name="Path" transform="translate(319.813 423.56)"/>
        <path id="prefix__Path-137" d="M2.355 4.831h408.26c3.141 0 3.141-4.831 0-4.831H2.355c-3.14 0-3.14 4.831 0 4.831z" class="prefix__cls-11" data-name="Path" transform="translate(320.88 435.477)"/>
        <path id="prefix__Path-138" d="M0 2.295V262.47c0 3.14 4.831 3.14 4.831 0V2.295c0-3.06-4.831-3.06-4.831 0z" class="prefix__cls-11" data-name="Path" transform="translate(336.039 449.771)"/>
        <path id="prefix__Path-139" d="M0 2.355v235.213c0 3.14 4.831 3.14 4.831 0V2.355c0-3.14-4.831-3.14-4.831 0z" class="prefix__cls-11" data-name="Path" transform="translate(672.471 446.489)"/>
        <path id="prefix__Path-140" d="M2.355 4.831h473.083c3.14 0 3.14-4.831 0-4.831H2.355c-3.14 0-3.14 4.831 0 4.831z" class="prefix__cls-11" data-name="Path" transform="translate(.875 651.042)"/>
        <path id="prefix__Path-141" d="M2.355 4.831h418.084c3.141 0 3.141-4.831 0-4.831H2.355c-3.14 0-3.14 4.831 0 4.831z" class="prefix__cls-11" data-name="Path" transform="translate(566.561 653.216)"/>
        <path id="prefix__Path-142" d="M0 2.355v254.3c0 3.14 4.831 3.14 4.831 0V2.355c0-3.14-4.831-3.14-4.831 0z" class="prefix__cls-11" data-name="Path" transform="translate(337.005 449.63)"/>
        <path id="prefix__Path-143" d="M0 2.295v253.25c0 3.14 4.831 3.14 4.831 0V2.295c0-3.06-4.831-3.06-4.831 0z" class="prefix__cls-11" data-name="Path" transform="translate(338.052 450.737)"/>
        <path id="prefix__Path-144" d="M0 2.295v230.542c0 3.14 4.831 3.14 4.831 0V2.295c0-3.06-4.831-3.06-4.831 0z" class="prefix__cls-11" data-name="Path" transform="translate(672.068 445.342)"/>
        <path id="prefix__Path-145" d="M0 2.355V230.8c0 3.14 4.831 3.14 4.831 0V2.355c0-3.14-4.831-3.14-4.831 0z" class="prefix__cls-11" data-name="Path" transform="translate(673.196 446.409)"/>
        <path id="prefix__Path-146" d="M.618 4.213A121.608 121.608 0 0 1 11.81 20.238c1.61 2.657 5.8.242 4.187-2.416A137.713 137.713 0 0 0 4 .831C1.986-1.585-1.4 1.8.618 4.213z" class="prefix__cls-11" data-name="Path" transform="translate(325.275 436.498)"/>
        <path id="prefix__Path-147" d="M4.2 19.058C10.161 14.065 16.04 8.992 22 4c2.335-2.013-1.047-5.4-3.382-3.382C12.658 5.61 6.779 10.683.82 15.676c-2.42 2.013 1.047 5.395 3.38 3.382z" class="prefix__cls-11" data-name="Path" transform="translate(338.037 435.987)"/>
        <path id="prefix__Path-148" d="M1.153 4.55l14.977 9.421c2.657 1.691 5.073-2.5 2.416-4.187L3.569.362C.911-1.248-1.5 2.939 1.153 4.55z" class="prefix__cls-11" data-name="Path" transform="translate(657.468 438.658)"/>
        <path id="prefix__Path-149" d="M12.7.577a152.755 152.755 0 0 0-12 10.79C-1.473 13.542 1.909 17 4.083 14.749a152.755 152.755 0 0 1 12-10.79C18.5 2.026 15.115-1.356 12.7.577z" class="prefix__cls-11" data-name="Path" transform="translate(674.991 436.914)"/>
        <path id="prefix__Path-150" d="M1.755 4.847a76.421 76.421 0 0 0 19.165.564c-.4-1.53-.805-2.979-1.208-4.509-2.657 1.691-5.4 2.174-8.536 2.5C9.4 3.64 7.633 6.055 9.485 7.5a8.564 8.564 0 0 0 8.133 1.852c2.979-.725 1.772-5.4-1.288-4.67a3.263 3.263 0 0 1-3.463-.644l-1.691 4.111c3.865-.4 7.65-.966 10.951-3.221C23.98 3.72 23.5.177 20.92.419A74.483 74.483 0 0 1 2.963.016c-2.98-.322-4.268 4.348-1.208 4.831z" class="prefix__cls-11" data-name="Path" transform="translate(660.651 438.602)"/>
        <path id="prefix__Path-151" d="M7.619.213a8.256 8.256 0 0 0-6.442 1.128 2.545 2.545 0 0 0-.886 3.3 2.486 2.486 0 0 0 3.3.886 3.048 3.048 0 0 1 2.659-.643 2.544 2.544 0 0 0 2.979-1.691 2.329 2.329 0 0 0-1.61-2.98z" class="prefix__cls-11" data-name="Path" transform="translate(678.139 438.646)"/>
        <path id="prefix__Path-152" d="M1.1 5.324c1.449.966 6.845 3.463 6.6 5.556l2.416-2.416c-.322 0-1.288-3.7-1.53-4.348-.725 1.208-1.369 2.416-2.094 3.624a42.627 42.627 0 0 0 13.85-2.979C19.537 3.392 18.813 2.1 18.007.734A81.778 81.778 0 0 1 9.23 8.626l3.3 3.3c2.9-4.912-1.208-8.938-5.4-11.032-.4 1.53-.805 2.979-1.208 4.509 3.3-.161 6.6-.242 9.9-.081 3.14.161 3.06-4.67 0-4.831a81.3 81.3 0 0 0-9.9.081C3.674.734 2.466 3.955 4.721 5.083c1.449.725 4.993 2.255 3.7 4.429-1.127 1.933 1.288 4.831 3.3 3.3A82.814 82.814 0 0 0 21.47 4.2c1.53-1.614 0-5-2.335-4.029A40.046 40.046 0 0 1 6.573 2.989a2.462 2.462 0 0 0-2.094 3.624c1.369 3.06 1.289 6.764 5.721 6.687a2.477 2.477 0 0 0 2.416-2.416c.64-4.835-5.716-7.573-8.942-9.667C.936-.554-1.48 3.633 1.1 5.324z" class="prefix__cls-11" data-name="Path" transform="translate(330.271 437.642)"/>
        <path id="prefix__Path-153" d="M2.416 13.065V1.147a1.209 1.209 0 0 0-2.416 0v11.918a1.208 1.208 0 1 0 2.416 0z" class="prefix__cls-1" data-name="Path" transform="translate(355.365 409.931)"/>
        <path id="prefix__Path-154" d="M1.147 2.416h66.836a1.209 1.209 0 0 0 0-2.416H1.147a1.209 1.209 0 0 0 0 2.416z" class="prefix__cls-1" data-name="Path" transform="translate(355.425 409.71)"/>
        <path id="prefix__Path-155" d="M0 1.208v11.354a1.209 1.209 0 0 0 2.416 0V1.208a1.208 1.208 0 0 0-2.416 0z" class="prefix__cls-1" data-name="Path" transform="translate(422.2 409.71)"/>
        <path id="prefix__Path-156" d="M1.147 2.416h51.134a1.209 1.209 0 0 0 0-2.416H1.147a1.209 1.209 0 0 0 0 2.416z" class="prefix__cls-1" data-name="Path" transform="translate(358.485 414.219)"/>
        <path id="prefix__Path-157" d="M1.147 2.416h39.216a1.209 1.209 0 0 0 0-2.416H1.147a1.209 1.209 0 0 0 0 2.416z" class="prefix__cls-1" data-name="Path" transform="translate(369.839 418.809)"/>
        <path id="prefix__Path-158" d="M2.416 9.28V1.147a1.209 1.209 0 0 0-2.416 0V9.28a1.209 1.209 0 0 0 2.416 0z" class="prefix__cls-1" data-name="Path" transform="translate(371.309 401.395)"/>
        <path id="prefix__Path-159" d="M1.147 2.416h58.22a1.209 1.209 0 0 0 0-2.416H1.147a1.209 1.209 0 0 0 0 2.416z" class="prefix__cls-1" data-name="Path" transform="translate(372.899 400.852)"/>
        <path id="prefix__Path-160" d="M1.147 2.416h7.57a1.209 1.209 0 0 0 0-2.416h-7.57a1.209 1.209 0 0 0 0 2.416z" class="prefix__cls-1" data-name="Path" transform="translate(422.985 409.146)"/>
        <path id="prefix__Path-161" d="M0 1.208v7.811a1.209 1.209 0 0 0 2.416 0V1.208a1.208 1.208 0 0 0-2.416 0z" class="prefix__cls-1" data-name="Path" transform="translate(431.058 401.093)"/>
        <path id="prefix__Path-162" d="M1.208 2.416h13.931a1.209 1.209 0 0 0 0-2.416H1.208a1.208 1.208 0 0 0 0 2.416z" class="prefix__cls-1" data-name="Path" transform="translate(384.515 404.878)"/>
        <path id="prefix__Path-163" d="M1.147 2.416h12.4a1.209 1.209 0 0 0 0-2.416h-12.4a1.209 1.209 0 0 0 0 2.416z" class="prefix__cls-1" data-name="Path" transform="translate(408.571 406.891)"/>
        <path id="prefix__Path-164" d="M4.721 13.569C2.789 11.717 2.386 8.9 2.547 6.322c.322-4.268 4.187-4.429 7.408-3.14 1.445.563 2.094-1.772.645-2.335C6.976-.6 2.225-.522.615 3.745-.754 7.369.212 12.6 3.03 15.26c1.128 1.128 2.819-.644 1.691-1.691z" class="prefix__cls-1" data-name="Path" transform="translate(382.531 386.155)"/>
        <path id="prefix__Path-165" d="M1.846 2.908c7.569-3.382 10.71 9.341 4.187 12.562-1.369.725-.161 2.738 1.208 2.094 9.341-4.67 3.865-21.42-6.6-16.749-1.453.643-.164 2.737 1.205 2.093z" class="prefix__cls-1" data-name="Path" transform="translate(390.238 385.221)"/>
        <path id="prefix__Path-166" d="M5.207 7.556A15.853 15.853 0 0 0 2.308.551C1.422-.738-.672.47.214 1.759A15.223 15.223 0 0 1 2.871 8.2c.242 1.53 2.577.886 2.335-.644z" class="prefix__cls-1" data-name="Path" transform="translate(387.119 379.928)"/>
        <path id="prefix__Path-167" d="M2.366 5.447a7.577 7.577 0 0 1 .966-1.772 5.642 5.642 0 0 1 .644-.805c.081-.161.242-.242.4-.4-.4-.805-.644-.966-.805-.564a7.938 7.938 0 0 0-1.044 2.011A17.68 17.68 0 0 1 1.158 5.93c-.886 1.288 1.208 2.5 2.094 1.208a23.49 23.49 0 0 0 2.335-3.865C6.151 2.146 6.473.7 5.023.132 2.608-.753.756 3.031.111 4.722-.533 6.252 1.8 6.9 2.366 5.447z" class="prefix__cls-1" data-name="Path" transform="translate(388.832 377.931)"/>
        <path id="prefix__Path-168" d="M0 .322c.322 3.785.644 7.65.966 11.435l111.366-.966c-.4-3.624-.805-7.247-1.208-10.79C74 .161 37.041.242 0 .322z" class="prefix__cls-9" data-name="Path" transform="translate(786.897 545.152)"/>
        <path id="prefix__Path-169" d="M2.325 4.831H113.61c3.14 0 3.14-4.831 0-4.831H2.325c-3.06 0-3.14 4.831 0 4.831z" class="prefix__cls-11" data-name="Path" transform="translate(785.296 553.366)"/>
        <path id="prefix__Path-170" d="M2.355 4.831h109.192c3.14 0 3.14-4.831 0-4.831H2.355c-3.14 0-3.14 4.831 0 4.831z" class="prefix__cls-11" data-name="Path" transform="translate(785.991 542.334)"/>
        <path id="prefix__Path-171" d="M0 2.355v8.214c0 3.14 4.831 3.14 4.831 0V2.355c0-3.14-4.831-3.14-4.831 0z" class="prefix__cls-11" data-name="Path" transform="translate(784.561 543.119)"/>
        <path id="prefix__Path-172" d="M0 2.355v10.952c0 3.14 4.831 3.14 4.831 0V2.355c0-3.14-4.831-3.14-4.831 0z" class="prefix__cls-11" data-name="Path" transform="translate(896.491 543.119)"/>
        <path id="prefix__Path-173" d="M0 2.355V141.1c0 3.14 4.831 3.14 4.831 0V2.355c0-3.14-4.831-3.14-4.831 0z" class="prefix__cls-11" data-name="Path" transform="translate(842.217 554.795)"/>
        <path id="prefix__Path-174" d="M26.115.362C17.821 5.274 9.527 10.186 1.153 15.1c-2.657 1.61-.242 5.8 2.416 4.187 8.294-4.913 16.588-9.825 24.962-14.737 2.738-1.611.242-5.798-2.416-4.188z" class="prefix__cls-11" data-name="Path" transform="translate(815.941 694.807)"/>
        <path id="prefix__Path-175" d="M1.2 4.518C10.626 9.752 19.967 15.067 29.388 20.3c2.738 1.53 5.154-2.657 2.416-4.187C22.382 10.88 13.041 5.565 3.62.331.882-1.2-1.533 2.988 1.2 4.518z" class="prefix__cls-11" data-name="Path" transform="translate(842.221 694.114)"/>
        <path id="prefix__Path-176" d="M2.355 6.446c17.876-.161 35.672-.725 53.549-1.61 3.06-.161 3.14-4.993 0-4.831Q29.21 1.333 2.355 1.614c-3.14 0-3.14 4.832 0 4.832z" class="prefix__cls-11" data-name="Path" transform="translate(816.187 709.419)"/>
        <path id="prefix__Path-177" d="M.428 3.517a314 314 0 0 1 19.809 32.21c1.449 2.738 5.637.322 4.187-2.416A314 314 0 0 0 4.615 1.1C2.844-1.475-1.344.941.428 3.517z" class="prefix__cls-11" data-name="Path" transform="translate(820.772 555.404)"/>
        <path id="prefix__Path-178" d="M27.257.69A154.843 154.843 0 0 0 .362 34.752c-1.61 2.657 2.577 5.154 4.187 2.416A150.573 150.573 0 0 1 30.72 4.153c2.255-2.174-1.208-5.637-3.463-3.463z" class="prefix__cls-11" data-name="Path" transform="translate(842.338 554.769)"/>
        <path id="prefix__Path-179" d="M46.289 3.382c-.644 11.515-1.208 23.03-1.852 34.545C13.677 51.294-1.14 60.071.068 64.1c1.369 4.831 25.043 3.14 70.862-4.912q.483-29.595.886-59.188c-8.455 1.127-16.991 2.255-25.527 3.382z" class="prefix__cls-11" data-name="Path" transform="translate(626.504 646.774)"/>
        <path id="prefix__Path-180" d="M117.244 1.534C110.4 7.654 100.656 16.512 89.3 27.463 62.246 53.714 42.356 72.96 28.908 92.849 17.8 109.357 1.288 140.761 0 192.136a149.845 149.845 0 0 0 41.39 5.476 151.594 151.594 0 0 0 15.461-.966 138.69 138.69 0 0 1 .483-51.375 136.5 136.5 0 0 1 12.481-35.914c36.236-16.1 60.716-35.833 76.337-50.892 15.783-15.219 33.74-32.612 28.908-44.933-4.428-11.676-28.022-16.185-57.816-11.998z" class="prefix__cls-2" data-name="Path" transform="translate(651.051 462.047)"/>
        <path id="prefix__Path-181" d="M127.471 0a523.394 523.394 0 0 1-44.208 51.616 525.473 525.473 0 0 1-62.97 55Q10.146 151.185 0 195.675a59.313 59.313 0 0 0 9.824.886 66.114 66.114 0 0 0 18.44-2.174 150.675 150.675 0 0 1-.644-40.262 146.912 146.912 0 0 1 13.528-46.06 336.683 336.683 0 0 0 43-23.674s32.532-21.1 57.736-53.468a28.575 28.575 0 0 0 4.026-7.086c1.208-3.14 2.738-7.006 1.53-11.032-1.127-3.624-3.865-5.637-6.764-7.65A31.394 31.394 0 0 0 127.471 0z" class="prefix__cls-15" data-name="Path" transform="translate(678.913 463.661)"/>
        <path id="prefix__Path-182" d="M34.384 0Q29.19 9.663 24.238 20.292A397.214 397.214 0 0 0 0 87.852c7.408-.322 14.736-.644 22.144-.886a143.3 143.3 0 0 1-1.53-38.088A140.453 140.453 0 0 1 34.384 0z" class="prefix__cls-14" data-name="Path" transform="translate(685.033 572.128)"/>
        <path id="prefix__Path-183" d="M27.822 8.536l11.112 34.545Q-2.134 67.721.121 72.714 2.9 78.753 70.983 54.837L52.14 0c-8.133 2.738-16.266 5.637-24.318 8.536z" class="prefix__cls-11" data-name="Path" transform="translate(694.655 652.733)"/>
        <path id="prefix__Path-184" d="M167.629 5.794c5.717 29.069-2.9 45.416-7.006 51.7-8.214 12.562-19.165 16.427-51.133 32.29-12.481 6.197-31.49 15.86-54.757 28.664a232.662 232.662 0 0 0 21.017 66.271 67.09 67.09 0 0 1-58.3 17.715A155.446 155.446 0 0 1 .7 142.2c-1.047-16.1-2.255-34.384 7.167-52.422 7.247-13.85 14.253-15.139 43.564-37.524C95.479 18.677 99.908 6.116 122.616 1.445c18.6-3.785 35.109.644 45.013 4.348z" class="prefix__cls-2" data-name="Path" transform="translate(687.633 473.409)"/>
        <path id="prefix__Path-185" d="M106.856.054c.4 9.341-.322 24-7.811 38.974C92.764 51.671 84.39 60.689 56.77 79.371 32.21 95.959 12.642 108.763 0 116.976L24.157 197.9a47.37 47.37 0 0 0 8.294-3.7 45.619 45.619 0 0 0 11.837-9.824 245.986 245.986 0 0 1-10.227-25.285 249.833 249.833 0 0 1-10.388-40.665c19.97-11.112 33.981-18.36 42.195-22.466 12.24-6.12 18.279-9.18 24.479-12.159 2.094-.966 6.764-3.14 12.884-6.361 6.845-3.543 10.227-5.234 13.287-7.328a52.917 52.917 0 0 0 13.85-13.448c7.247-10.468 7.891-21.42 8.375-29.392a77.422 77.422 0 0 0-1.691-21.42 73.826 73.826 0 0 0-16.588-4.831 60.484 60.484 0 0 0-13.608-.967z" class="prefix__cls-17" data-name="Path" transform="translate(718.289 473.753)"/>
        <path id="prefix__Path-186" fill="#6d6c6c" d="M114.828 0a73.785 73.785 0 0 1-7.73 17.152C94.455 37.444 75.13 45.5 61.6 52.261 45.577 60.313 24 73.6 0 96.549c6.764-3.785 15.058-8.294 24.721-13.449 17.071-9.1 25.526-13.609 34.3-17.8 6.845-3.221 14.655-6.684 26.332-12.884 8.375-4.429 12.964-7.167 17.313-12.24a47.676 47.676 0 0 0 8.536-15.3A61.583 61.583 0 0 0 114.828 0z" data-name="Path" opacity="0.11" transform="translate(742.125 495.307)"/>
        <path id="prefix__Path-187" fill="#6d6c6c" d="M0 0a210.989 210.989 0 0 0 1.449 21.661 212.743 212.743 0 0 0 12.079 50.006A29.461 29.461 0 0 0 18.44 68.2a23.2 23.2 0 0 0 2.818-2.818c-3.382-7.006-6.684-14.817-9.824-23.272A264.982 264.982 0 0 1 0 0z" data-name="Path" opacity="0.17" transform="translate(741.803 592.662)"/>
        <path id="prefix__Path-188" d="M156.978.935c-10.066 3.382-11.837 15.38-18.6 29.069 0 0-10.629 21.742-33.9 39.618-8.457 6.523-26.736 18.038-57.255 20.051a63.2 63.2 0 0 0-13.367-3.785c-8.294-1.369-19.89-3.382-27.7 3.3-3.543 3.06-7.489 8.858-5.717 12.4 2.174 4.348 11.837 2.657 27.7 1.933 21.983-.966 20.936 1.449 36.236.483 13.689-.886 35.27-2.174 57.736-15.3a104.009 104.009 0 0 0 35.27-33.418c5.154-8.052 7.489-14.575 12.24-27.7 6.281-17.232 5.234-21.1 3.463-23.352C170.023.049 162.615-1 156.978.935z" class="prefix__cls-6" data-name="Path" transform="translate(645.218 320.6)"/>
        <path id="prefix__Path-189" d="M17.386.011c-5.073.966-12.4 1.208-16.1 5.4C-.813 7.822-.491 12.09 3.374 12.09a.927.927 0 0 0 0-1.852C1.442 8.224 1.6 6.614 4.019 5.486a13.767 13.767 0 0 1 2.657-1.368 22.923 22.923 0 0 1 3.14-.886c2.657-.564 5.315-1.047 8.052-1.53C19 1.541 18.513-.15 17.386.011z" class="prefix__cls-11" data-name="Path" transform="translate(665.473 412.759)"/>
        <path id="prefix__Path-190" d="M.215 1.586C4.966 7.545 12.374.62 18.091 2.15a.919.919 0 0 0 .483-1.772 12.162 12.162 0 0 0-7.167.483C8.106 1.908 4.08 3.68 1.423.3.779-.588-.51.7.215 1.586z" class="prefix__cls-11" data-name="Path" transform="translate(644.636 418.672)"/>
        <path id="prefix__Path-191" d="M0 .856c.164 2.416 1.774 3.382 4.109 3.382 5.234 0 9.824-2.094 15.058-.4a.919.919 0 0 0 .483-1.772 19.113 19.113 0 0 0-7.972-.725C9.746 1.5 2.016 3.674 1.855.775 1.694-.271-.078-.271 0 .856z" class="prefix__cls-11" data-name="Path" transform="translate(647.747 412.075)"/>
        <path id="prefix__Path-192" d="M.083 1.067a4.927 4.927 0 0 0 4.268 3.14c4.107.564 7.65.725 11.435 2.416 1.047.483 2.013-1.127.886-1.53A30.127 30.127 0 0 0 10.229 3C7.652 2.517 2.9 3.322 1.774.584 1.371-.463-.4.02.083 1.067z" class="prefix__cls-11" data-name="Path" transform="translate(655.559 406.871)"/>
        <path id="prefix__Path-193" d="M144.231.086c-4.59 1.127-3.221 13.448-5.637 24.882-4.026 18.44-17.152 29.955-31.646 42.678-9.823 8.616-21.338 18.762-38.893 23.271A148.777 148.777 0 0 1 41.321 94.7c-14.494.725-21.661 1.127-22.144 1.047A28.31 28.31 0 0 0 4.6 97.6c-1.288.564-4.831 2.094-4.59 3.221.322 1.691 8.7 1.208 27.539 1.047 13.931-.081 12.481.161 16.749 0 8.052-.322 22.064-.805 37.847-6.523 22.466-8.052 36.317-22.305 42.678-28.908a100.682 100.682 0 0 0 10.549-12.964c4.993-7.489 7.328-14.172 11.918-27.3 5.315-15.3 5.315-19.326 3.221-22.466-1.449-1.852-4.107-4.187-6.281-3.624z" class="prefix__cls-14" data-name="Path" transform="translate(667.708 321.691)"/>
        <path id="prefix__Path-194" d="M0 12.236A19.632 19.632 0 0 1 9.421 1.688C19.084-2.9 28.506 3.3 28.908 3.54a43.977 43.977 0 0 1-5.154 2.416c-2.012.885-2.818 1.044-3.542 1.852-1.208 1.53-.886 3.785-.564 5.154a39.6 39.6 0 0 1-9.985.805A37.336 37.336 0 0 1 0 12.236z" class="prefix__cls-21" data-name="Path" transform="translate(647.025 410.599)"/>
        <path id="prefix__Path-195" d="M87.047 0a129.961 129.961 0 0 1-27.056 48.637A131.929 131.929 0 0 1 0 87.047c9.1-1.61 42.92-8.777 66.755-39.7A105.732 105.732 0 0 0 87.047 0z" class="prefix__cls-7" data-name="Path" transform="translate(731.093 334.983)"/>
        <path id="prefix__Path-196" d="M37.2 13.084c-5.073 5.556-8.7 12.884-11.032 39.94-3.463 39.538 2.013 48.637-4.107 68.2-2.818 8.938-8.616 21.9-22.064 35.833a145.147 145.147 0 0 0 45.5 19.326 143.213 143.213 0 0 0 48.959 2.738C108.95 134.6 107.742 98.6 104.763 76.457 101.944 55.359 95.583 6.8 70.3.683 58.3-2.3 44.691 4.951 37.2 13.084z" class="prefix__cls-6" data-name="Path" transform="translate(762.256 309.095)"/>
        <path id="prefix__Path-197" d="M46.543 0c-.4 3.3-.966 8.214-1.53 14.092-3.785 39.377.644 46.543-2.255 69.734-1.61 13.206-4.993 37.927-22.386 60.957A104.272 104.272 0 0 1 0 165.156a130.116 130.116 0 0 0 39.216 12.562 127.735 127.735 0 0 0 37.444 0 223.653 223.653 0 0 0 8.052-29.553 227.739 227.739 0 0 0 4.268-54.676C87.933 67.963 85.6 13.206 57.575 2.013A30.278 30.278 0 0 0 46.543 0z" class="prefix__cls-12" data-name="Path" transform="translate(779.569 309.939)"/>
        <path id="prefix__Path-198" fill="#6d6c6c" d="M34.948 0c-.966-.161-3.221 9.824-6.522 18.843C24.238 30.521 16.347 46.223 0 63.214c7.891-.4 15.863-.725 23.755-1.127a299.44 299.44 0 0 0 8.777-36.961C34.3 14.577 36.156.243 34.948 0z" data-name="Path" opacity="0.24" transform="translate(833.037 425.571)"/>
        <path id="prefix__Path-199" d="M89 .177C98.1 1.948 101.962 16.362 105.183 29c3.221 12.723 9.421 38.652.725 72.794-3.624 14.092-6.845 27.217-18.038 40.5C73.295 159.7 54.694 166.46 46 168.957c-9.663 6.684-14.655 10.066-17.474 11.837-2.013 1.288-3.221 2.013-5.4 3.543-3.14 2.255-3.7 2.979-5.234 3.624-1.61.644-4.187 1.127-8.052-.081a5.483 5.483 0 0 1-4.67-1.449 4.475 4.475 0 0 1-1.37-2.98A4.071 4.071 0 0 1 .984 182a4.037 4.037 0 0 1-.322-4.348A5.852 5.852 0 0 1 .017 175C-.385 169.359 6.3 164.85 10 162.273c3.946-2.738 11.757-7.086 23.835-8.214a82.61 82.61 0 0 0 24.885-20.05c2.738-3.221 21.017-25.929 19.567-56.448-.564-12.8-5.154-36.639-7.73-58.864a16.916 16.916 0 0 1 1.691-10.146C75.63 2.834 83.36-.87 89 .177z" class="prefix__cls-6" data-name="Path" transform="translate(758.293 320.956)"/>
        <path id="prefix__Path-200" d="M.846 1.852A.927.927 0 0 0 .846 0a.93.93 0 0 0 0 1.852z" class="prefix__cls-11" data-name="Path" transform="translate(758.351 497.32)"/>
        <path id="prefix__Path-201" d="M0 9.782v.564a.916.916 0 0 0 1.691.483 25.427 25.427 0 0 1 12.645-9.018.919.919 0 0 0-.483-1.772A27.686 27.686 0 0 0 .083 9.863l1.691.483v-.564c0-1.127-1.852-1.127-1.774 0z" class="prefix__cls-11" data-name="Path" transform="translate(758.308 488.424)"/>
        <path id="prefix__Path-202" d="M1.5 12.379A39.344 39.344 0 0 1 16.48 1.831c1.047-.4.644-2.174-.483-1.772A40.762 40.762 0 0 0 .214 11.01c-.725.967.564 2.255 1.286 1.369z" class="prefix__cls-11" data-name="Path" transform="translate(761.317 492.349)"/>
        <path id="prefix__Path-203" d="M1.464 13.6A59.06 59.06 0 0 1 15.958 1.68c.966-.564.081-2.174-.886-1.53A60.087 60.087 0 0 0 .256 12.389c-.805.805.483 2.094 1.208 1.208z" class="prefix__cls-11" data-name="Path" transform="translate(767.395 495.48)"/>
        <path id="prefix__Path-204" d="M74.081 2.629c-3.06 4.429 1.933 12.24 4.751 18.038 4.107 8.536 4.751 17.8 6.039 36.317 2.335 33.579-13.287 62.326-14.414 64.339-14.253 25.365-36.4 40.584-43.322 45.255C15.379 174.469-1.29 183.085.079 186.386c.483 1.208 3.14 1.369 4.268 1.288 3.865-.161 5.476-3.14 10.871-6.925 2.818-2.013 2.738-1.369 7.569-4.268a125.944 125.944 0 0 0 11.6-7.891 83.687 83.687 0 0 0 23.755-10.549 81.35 81.35 0 0 0 29.709-34.061c2.9-6.361 4.026-11.435 6.281-21.5 2.335-10.549 6.039-27.862 3.946-49.925-.966-9.985-2.657-16.669-4.993-25.446C89.462 13.017 86.16.857 79.879.052a6.513 6.513 0 0 0-5.8 2.577z" class="prefix__cls-21" data-name="Path" transform="translate(769.666 321.563)"/>
        <path id="prefix__Path-205" d="M92.04 0c-.725 0-.564 8.455-4.026 30.921-3.14 20.131-4.751 30.438-9.18 39.86a88.1 88.1 0 0 1-19.487 26.412c-12.16 11.757-19.487 12.562-38.088 26.251A227.152 227.152 0 0 0 0 141.16c9.663-6.442 19.245-12.884 28.908-19.245 8.858-2.577 27.056-9.341 41.712-26.654 10.066-11.918 14.011-23.594 17.071-32.693C98.16 30.116 93.328 0 92.04 0z" class="prefix__cls-14" data-name="Path" transform="translate(774.657 368.239)"/>
        <path id="prefix__Path-206" d="M5.094 1.517C1.47 4.013.826 8.844.262 14.159A53.229 53.229 0 0 0 4.53 40.651 58.628 58.628 0 0 0 15.562 39.6a56.424 56.424 0 0 0 8.616-2.416c-.322-10.71-.564-21.42-.886-32.129C16.528.067 9.442-1.463 5.094 1.517z" class="prefix__cls-6" data-name="Path" transform="translate(806.041 284.507)"/>
        <path id="prefix__Path-207" d="M23.327 2.892c-5.637 3.221-8.052 8.616-12.8 19.084C5.209 33.894 1.5 44.2.055 51.771a2.438 2.438 0 0 0 1.369 2.738A30.8 30.8 0 0 0 6.5 55.717 32.732 32.732 0 0 0 9.718 70.05a33.508 33.508 0 0 0 17.474 15.944 57.619 57.619 0 0 0 19.487-6.925A44.061 44.061 0 0 0 59.563 69a40.835 40.835 0 0 0 7.408-12.884 14.1 14.1 0 0 0 6.925-1.61c5.476-2.979 10.146-10.79 7.247-15.541-2.173-3.465-8.132-4.91-14.252-2.655A42.761 42.761 0 0 0 66.005 26c-.242-1.047-1.933-8.7-5.8-14.092C52.8 1.523 34.762-3.63 23.327 2.892z" class="prefix__cls-6" data-name="Path" transform="translate(768.643 229.421)"/>
        <path id="prefix__Path-208" d="M5.861 58.865a36.159 36.159 0 0 1-5.8-21.5C.3 33.822.788 27.058 5.7 20.7a28.393 28.393 0 0 1 16.669-10.23 22.459 22.459 0 0 1 6.281-6.845c1.288-.886 4.831-3.06 13.528-3.543a60.279 60.279 0 0 1 19.97 2.335 38.4 38.4 0 0 1 13.528 6.845C85.9 17.314 85.1 23.676 98.062 36.721c2.979 2.979 5.073 4.026 9.582 8.455a122.356 122.356 0 0 1 10.629 11.676c4.751 6.039 13.689 17.474 15.38 32.935.564 5.234 2.174 19.97-7.006 31.244-12.481 15.38-40.665 16.588-57.817 4.348-3.221-2.255-16.588-11.918-15.863-27.459.644-14.011 12.32-22.386 13.931-23.594a10.038 10.038 0 0 0 6.925.483c5.717-2.094 8.133-10.871 5.154-15.3a7.19 7.19 0 0 0-3.7-2.657c-4.67-1.61-9.019 1.852-9.341 2.094A107.532 107.532 0 0 1 51.6 46.464a73.708 73.708 0 0 1-7.569-8.777 73.162 73.162 0 0 1-5.556-9.18 43.508 43.508 0 0 0-13.609 5.878 44.426 44.426 0 0 0-9.422 8.215 56.548 56.548 0 0 0-5.315 7.247 84.989 84.989 0 0 0-4.268 9.019z" class="prefix__cls-3" data-name="Path" transform="translate(765.816 209.927)"/>
        <path id="prefix__Path-209" d="M1.735 1a3.488 3.488 0 0 1 .081.4v.08c-.081.161-.161.242-.242.4.161-.161 0-.081-.322.161-.161-.077-.322-.077-.483-.158C.689 1.8.608 1.8.608 1.722.527 1.561.527 1.4.447 1.239v-.081C.527 1 .608.917.689.756c.161 0 .322-.081.483-.081l.644.644v.242c-.4.081-.805.242-1.208.322L.527 1.8c-.08-.158-.161-.239-.241-.4A4.781 4.781 0 0 1 .608.756C.769.675.93.675 1.091.595h-.08a.952.952 0 0 0-.886.886.845.845 0 0 0 .886.886 1.115 1.115 0 0 0 1.046-.887A1.088 1.088 0 0 0 1.494.192.888.888 0 0 0 .286.514 1.107 1.107 0 0 0 .93 2.286 1.229 1.229 0 0 0 2.3 1.078 1.146 1.146 0 0 0 .85.031a1.2 1.2 0 0 0-.725 1.691.856.856 0 0 0 1.208.322C1.9 1.964 1.9 1.4 1.735 1z" class="prefix__cls-11" data-name="Path" transform="translate(786.369 274.961)"/>
        <path id="prefix__Path-210" d="M1.63 1.126c.161.805-.161.725-.886-.242C.9.8.985.723 1.146.643a.747.747 0 0 1 .725.564C1.952.723 1.388.321.985.321a.845.845 0 0 0-.885.885 1.163 1.163 0 0 0 1.288 1.208A1.138 1.138 0 0 0 2.435.884 1.226 1.226 0 0 0 .663.16 1.321 1.321 0 0 0 .18 2.012a.841.841 0 0 0 1.208.322.87.87 0 0 0 .242-1.208z" class="prefix__cls-11" data-name="Path" transform="translate(793.561 272.9)"/>
        <path id="prefix__Path-211" d="M1.288.781c.483 0 .564.161.242.564 0 .322-.081.483-.322.483-.081-.322-.081-.728-.161-1.047a.63.63 0 0 1 .644.081C.886-.024-.4 1.264.4 2.15a1.253 1.253 0 0 0 2.013-.242A1.305 1.305 0 0 0 1.691.056 1.32 1.32 0 0 0 0 1.184a1.443 1.443 0 0 0 1.691 1.369.908.908 0 1 0-.4-1.772z" class="prefix__cls-11" data-name="Path" transform="translate(791.648 278.559)"/>
        <path id="prefix__Path-212" d="M1.108 9.356A18.389 18.389 0 0 0 13.267 1.3c.644-.966-.886-1.852-1.53-.886A16.826 16.826 0 0 1 .705 7.665c-1.208.161-.725 1.852.4 1.691z" class="prefix__cls-11" data-name="Path" transform="translate(776.931 287.539)"/>
        <path id="prefix__Path-213" fill="#2a4480" d="M8.455 0c1.449 2.9 3.3 6.764 5.4 11.354 6.442 14.011 7.167 17.876 7.408 21.259a35.023 35.023 0 0 1-1.293 11.676C16.266 59.266 5.4 69.251 0 73.6a45.983 45.983 0 0 0 9.421-2.094 48.07 48.07 0 0 0 12.642-6.442 26.052 26.052 0 0 0 1.208 10.71c1.61 5.154 4.509 8.375 6.925 11.435a35.828 35.828 0 0 0 10.388 9.019 36.7 36.7 0 0 0 12.723 4.509 52.2 52.2 0 0 0 16.185 1.047c5.234-.483 13.528-1.208 21.259-7.167A28.482 28.482 0 0 0 99.77 83.5c.644-1.449 1.61-4.187 2.094-11.435.564-8.536.966-14.494-1.047-22.064a47.634 47.634 0 0 0-9.582-18.279c-6.442 17.313-21.983 27.3-35.995 25.2-10.951-1.682-17.554-10.298-19.487-12.956A10.979 10.979 0 0 0 46.865 40.5c2.979-3.543 3.865-9.9 0-13.287-3.06-2.657-8.133-2.738-11.918.242a105.5 105.5 0 0 1-15.138-13.283A100.339 100.339 0 0 1 8.455 0z" data-name="Path" opacity="0.151" transform="translate(796.962 241.091)"/>
        <path id="prefix__Path-214" d="M1.874 4.256A2.072 2.072 0 0 1 2.116 1.6c-.242.081-.4.161-.644.242h.242c-.242-.081-.4-.161-.644-.242.805.644.161 3.14-.161 3.865a3.409 3.409 0 0 1 .564-.4.281.281 0 0 0-.161.081c.242 0 .483.081.725.081-.483-.242-.4-1.53-.322-1.852a4.924 4.924 0 0 1 .564-1.933c-.4.081-.805.242-1.208.322a1.578 1.578 0 0 1 .4 1.449 1.517 1.517 0 0 1-.161.644c-.081.4-.242.4.161.483a3.409 3.409 0 0 0 .564.4c0-.081-.081-.081-.081-.161-.725-.886-2.255 0-1.53.886a1.414 1.414 0 0 0 1.61.564 1.99 1.99 0 0 0 1.127-1.61c.4-1.61.4-3.221-1.047-4.268a.826.826 0 0 0-1.206.32C.1 2.082-.38 4.578.666 6.189a1.364 1.364 0 0 0 1.934.483c.725-.564.805-2.013.886-2.818C3.646 2.646 3.4-.817 1.311.23-.38 1.116-.219 3.853.586 5.222c.322.966 1.933 0 1.288-.966z" class="prefix__cls-11" data-name="Path" transform="translate(784.942 263.005)"/>
        <path id="prefix__Path-215" d="M1.125 1.832c4.268-.725 7.891 1.61 11.193 4.107.966.725 1.852-.886.886-1.53C9.5 1.59 5.473-.584.642.141-.486.221 0 1.993 1.125 1.832z" class="prefix__cls-11" data-name="Path" transform="translate(781.987 257.216)"/>
        <path id="prefix__Path-216" d="M.418 1.76a11.88 11.88 0 0 1 2.415 2.093c.805.886 2.094-.4 1.288-1.288A16.482 16.482 0 0 0 1.3.149C.337-.495-.549 1.116.418 1.76z" class="prefix__cls-11" data-name="Path" transform="translate(787.526 286.277)"/>
    </g>
</svg>
